<svg width="20" height="21" viewBox="0 0 20 21" fill="none" xmlns="http://www.w3.org/2000/svg">
<path d="M9.5 15H1C1.54494 14.6914 2.00981 14.2592 2.35719 13.7381C2.70457 13.2171 2.92474 12.6217 3 12V9C3.05956 7.73107 3.4633 6.50227 4.16795 5.4453C4.8726 4.38833 5.85159 3.54303 7 3C7 2.46957 7.21071 1.96086 7.58579 1.58579C7.96086 1.21071 8.46957 1 9 1C9.53043 1 10.0391 1.21071 10.4142 1.58579C10.7893 1.96086 11 2.46957 11 3C12.1484 3.54303 13.1274 4.38833 13.8321 5.4453C14.5367 6.50227 14.9404 7.73107 15 9V10M6 15V16C5.9999 16.4372 6.09536 16.8691 6.27969 17.2656C6.46402 17.662 6.73277 18.0133 7.06713 18.295C7.40149 18.5767 7.79336 18.7819 8.21534 18.8962C8.63731 19.0106 9.07917 19.0313 9.51 18.957M13 17H19M16 14V20" stroke="#F9F1DE" stroke-width="2" stroke-linecap="round" stroke-linejoin="round"/>
</svg>
