<svg width="20" height="20" viewBox="0 0 20 20" fill="none" xmlns="http://www.w3.org/2000/svg">
<path fill-rule="evenodd" clip-rule="evenodd" d="M15.4511 0.344286C15.8132 -0.0726868 16.4448 -0.11713 16.8618 0.245019C18.1546 1.3679 19.1933 2.75344 19.9086 4.3093C20.1393 4.8111 19.9196 5.4049 19.4178 5.6356C18.916 5.86629 18.3222 5.64652 18.0915 5.14473C17.4949 3.8471 16.6286 2.69152 15.5503 1.75501C15.1334 1.39286 15.0889 0.761259 15.4511 0.344286ZM9.29289 2.29291C9.48043 2.10537 9.73478 2.00002 10 2.00002C10.2652 2.00002 10.5196 2.10537 10.7071 2.29291C10.8946 2.48044 11 2.7348 11 3.00002C11 3.38671 11.2229 3.73874 11.5725 3.90404C12.5569 4.3695 13.396 5.09404 14 6.00002C14.5998 6.89974 14.9453 7.94471 15 9.02438V12C15 12.0402 15.0024 12.0803 15.0072 12.1202C15.0875 12.7832 15.2996 13.4222 15.6298 14H13H7H4.37021C4.7004 13.4222 4.9125 12.7832 4.99275 12.1202C4.99758 12.0803 5 12.0402 5 12V9.02437C5.05474 7.94471 5.40018 6.89974 6 6.00002C6.60398 5.09404 7.44312 4.3695 8.42747 3.90404C8.77705 3.73874 9 3.38671 9 3.00002C9 2.7348 9.10535 2.48044 9.29289 2.29291ZM6 16H2C1.54584 16 1.14871 15.694 1.033 15.2548C0.917288 14.8156 1.11205 14.3536 1.50724 14.1298C1.91595 13.8984 2.2646 13.5742 2.52514 13.1834C2.77531 12.8082 2.93752 12.3815 3 11.9354V9.00002C3 8.98438 3.00036 8.96875 3.0011 8.95313C3.06917 7.50293 3.53058 6.09858 4.3359 4.89061C5.03636 3.83992 5.97402 2.97225 7.06999 2.35573C7.19206 1.80061 7.47048 1.28689 7.87868 0.878695C8.44129 0.316086 9.20435 1.52588e-05 10 1.52588e-05C10.7956 1.52588e-05 11.5587 0.316086 12.1213 0.878695C12.5295 1.28689 12.8079 1.80061 12.93 2.35573C14.026 2.97225 14.9636 3.83992 15.6641 4.89061C16.4694 6.09858 16.9308 7.50293 16.9989 8.95313C16.9996 8.96875 17 8.98438 17 9.00002V11.9354C17.0625 12.3815 17.2247 12.8082 17.4749 13.1834C17.7354 13.5742 18.084 13.8984 18.4928 14.1298C18.8879 14.3536 19.0827 14.8156 18.967 15.2548C18.8513 15.694 18.4542 16 18 16H14C14 17.0609 13.5786 18.0783 12.8284 18.8284C12.0783 19.5786 11.0609 20 10 20C8.93913 20 7.92172 19.5786 7.17157 18.8284C6.42142 18.0783 6 17.0609 6 16ZM12 16C12 16.5304 11.7893 17.0392 11.4142 17.4142C11.0391 17.7893 10.5304 18 10 18C9.46956 18 8.96086 17.7893 8.58578 17.4142C8.21071 17.0392 8 16.5304 8 16H12ZM4.44803 1.75475C4.86486 1.39243 4.90905 0.760813 4.54673 0.343985C4.18442 -0.0728436 3.5528 -0.117035 3.13597 0.245281C1.84389 1.36838 0.805955 2.75391 0.0912979 4.30957C-0.139253 4.81143 0.0806875 5.40516 0.582549 5.63572C1.08441 5.86627 1.67815 5.64633 1.9087 5.14446C2.50474 3.847 3.3704 2.69144 4.44803 1.75475Z" fill="#252D40"/>
</svg>
