<svg width="18" height="13" viewBox="0 0 18 13" fill="none" xmlns="http://www.w3.org/2000/svg">
<path d="M7 11.5C7 12.0523 7.44772 12.5 8 12.5H10C10.5523 12.5 11 12.0523 11 11.5C11 10.9477 10.5523 10.5 10 10.5H8C7.44772 10.5 7 10.9477 7 11.5ZM1 0.5C0.447716 0.5 0 0.947715 0 1.5C0 2.05228 0.447715 2.5 1 2.5H17C17.5523 2.5 18 2.05228 18 1.5C18 0.947715 17.5523 0.5 17 0.5H1ZM3 6.5C3 7.05228 3.44772 7.5 4 7.5H14C14.5523 7.5 15 7.05228 15 6.5C15 5.94772 14.5523 5.5 14 5.5H4C3.44772 5.5 3 5.94772 3 6.5Z" fill="#A31F34"/>
</svg>
