<svg width="24" height="24" viewBox="0 0 24 24" fill="none" xmlns="http://www.w3.org/2000/svg">
<g id="Icon">
<path id="icon" fill-rule="evenodd" clip-rule="evenodd" d="M10.2857 4C10.1125 4 9.93581 4.07182 9.79767 4.21686C9.65795 4.36357 9.57143 4.57251 9.57143 4.8V6H14.4286V4.8C14.4286 4.57251 14.342 4.36357 14.2023 4.21686C14.0642 4.07182 13.8875 4 13.7143 4H10.2857ZM16.4286 6V4.8C16.4286 4.07271 16.1539 3.36598 15.6506 2.83755C15.1458 2.30747 14.4503 2 13.7143 2H10.2857C9.54966 2 8.85424 2.30747 8.34939 2.83755C7.84613 3.36598 7.57143 4.07271 7.57143 4.8V6H5.77778H4C3.44772 6 3 6.44772 3 7C3 7.55228 3.44772 8 4 8H5V19.2C5 19.9273 5.2747 20.634 5.77796 21.1624C6.28281 21.6925 6.97823 22 7.71429 22H16.2857C17.0218 22 17.7172 21.6925 18.222 21.1624C18.7253 20.634 19 19.9273 19 19.2V8H20C20.5523 8 21 7.55228 21 7C21 6.44772 20.5523 6 20 6H16.4286ZM15.4286 8H8.57143H7V19.2C7 19.4275 7.08652 19.6364 7.22624 19.7831C7.36438 19.9282 7.54103 20 7.71429 20H16.2857C16.459 20 16.6356 19.9282 16.7738 19.7831C16.9135 19.6364 17 19.4275 17 19.2V8H15.4286ZM11 11C11 10.4477 10.5523 10 10 10C9.44772 10 9 10.4477 9 11V17C9 17.5523 9.44772 18 10 18C10.5523 18 11 17.5523 11 17V11ZM15 11C15 10.4477 14.5523 10 14 10C13.4477 10 13 10.4477 13 11V17C13 17.5523 13.4477 18 14 18C14.5523 18 15 17.5523 15 17V11Z" fill="#252D40"/>
</g>
</svg>
