<svg width="24" height="24" viewBox="0 0 24 24" fill="none" xmlns="http://www.w3.org/2000/svg">
<g id="Icon">
<path id="icon" fill-rule="evenodd" clip-rule="evenodd" d="M12 18C8.61278 18 5.65779 16.1305 3.15986 12C5.65779 7.86948 8.61278 6 12 6C15.3872 6 18.3422 7.86948 20.8401 12C18.3422 16.1305 15.3872 18 12 18ZM12 4C7.51999 4 3.9072 6.64709 1.13177 11.5038C0.956077 11.8113 0.956077 12.1887 1.13177 12.4962C3.9072 17.3529 7.51999 20 12 20C16.48 20 20.0928 17.3529 22.8682 12.4962C23.0439 12.1887 23.0439 11.8113 22.8682 11.5038C20.0928 6.64709 16.48 4 12 4ZM12 9C11.2043 9 10.4413 9.31607 9.87868 9.87868C9.31607 10.4413 9 11.2043 9 12C9 12.7957 9.31607 13.5587 9.87868 14.1213C10.4413 14.6839 11.2043 15 12 15C12.7957 15 13.5587 14.6839 14.1213 14.1213C14.6839 13.5587 15 12.7957 15 12C15 11.2043 14.6839 10.4413 14.1213 9.87868C13.5587 9.31607 12.7957 9 12 9ZM11.2929 11.2929C11.4804 11.1054 11.7348 11 12 11C12.2652 11 12.5196 11.1054 12.7071 11.2929C12.8946 11.4804 13 11.7348 13 12C13 12.2652 12.8946 12.5196 12.7071 12.7071C12.5196 12.8946 12.2652 13 12 13C11.7348 13 11.4804 12.8946 11.2929 12.7071C11.1054 12.5196 11 12.2652 11 12C11 11.7348 11.1054 11.4804 11.2929 11.2929Z" fill="#252D40"/>
</g>
</svg>
