<svg width="25" height="24" viewBox="0 0 25 24" fill="none" xmlns="http://www.w3.org/2000/svg">
<path fill-rule="evenodd" clip-rule="evenodd" d="M6.5 1C5.70435 1 4.94129 1.31607 4.37868 1.87868C3.81607 2.44129 3.5 3.20435 3.5 4V20C3.5 20.7957 3.81607 21.5587 4.37868 22.1213C4.94129 22.6839 5.70435 23 6.5 23H18.5C19.2956 23 20.0587 22.6839 20.6213 22.1213C21.1839 21.5587 21.5 20.7956 21.5 20V18.9231C21.5 18.3708 21.0523 17.9231 20.5 17.9231C19.9477 17.9231 19.5 18.3708 19.5 18.9231V20C19.5 20.2652 19.3946 20.5196 19.2071 20.7071C19.0196 20.8946 18.7652 21 18.5 21H6.5C6.23478 21 5.98043 20.8946 5.79289 20.7071C5.60536 20.5196 5.5 20.2652 5.5 20V4C5.5 3.73478 5.60536 3.48043 5.79289 3.29289C5.98043 3.10536 6.23478 3 6.5 3H14.5V8C14.5 8.55228 14.9477 9 15.5 9H19.5V9.69231C19.5 10.2446 19.9477 10.6923 20.5 10.6923C21.0523 10.6923 21.5 10.2446 21.5 9.69231V8C21.5 7.75409 21.4112 7.52891 21.264 7.35476L16.2731 1.36573C16.2579 1.34711 16.2419 1.32906 16.2253 1.31161C16.209 1.29442 16.1922 1.27787 16.1748 1.26197C15.9969 1.09927 15.7601 1 15.5 1H6.5ZM16.5 4.76205V7H18.365L16.5 4.76205Z" fill="#252D40"/>
<path d="M10.5 15.1518C10.5 15.5098 10.7958 15.8221 11.1559 15.8221C11.516 15.8221 11.8182 15.5098 11.8182 15.1518C11.8182 14.7874 11.516 14.4881 11.1559 14.4881C10.7958 14.4881 10.5 14.7874 10.5 15.1518Z" fill="#252D40"/>
<path d="M13.6196 17V15.5098C13.7675 15.692 14.0761 15.8351 14.4877 15.8351C15.3815 15.8351 16.0116 15.1258 16.0116 14.1367C16.0116 13.167 15.4522 12.4512 14.5263 12.4512C14.0697 12.4512 13.7225 12.6529 13.5874 12.8612V12.5293H12.6422V17H13.6196ZM15.0535 14.1432C15.0535 14.6833 14.7127 14.9501 14.3269 14.9501C13.9475 14.9501 13.6067 14.6768 13.6067 14.1432C13.6067 13.603 13.9475 13.3427 14.3269 13.3427C14.7127 13.3427 15.0535 13.603 15.0535 14.1432Z" fill="#252D40"/>
<path d="M19.7866 11.0521H18.8221V12.7831C18.7449 12.6594 18.507 12.4512 17.9604 12.4512C17.0538 12.4512 16.4108 13.1735 16.4108 14.1367C16.4108 15.1323 17.0924 15.8351 17.9926 15.8351C18.3784 15.8351 18.6999 15.6725 18.8478 15.4512C18.8478 15.5813 18.8671 15.7245 18.8735 15.7636H19.8123C19.8059 15.692 19.7866 15.4772 19.7866 15.1844V11.0521ZM17.3946 14.1432C17.3946 13.603 17.7354 13.3427 18.1148 13.3427C18.4941 13.3427 18.8349 13.603 18.8349 14.1432C18.8349 14.6768 18.4941 14.9501 18.1148 14.9501C17.7354 14.9501 17.3946 14.6768 17.3946 14.1432Z" fill="#252D40"/>
<path d="M22.4871 13.3623V12.5293H21.7927V12.282C21.7927 11.9241 22.037 11.846 22.2106 11.846C22.365 11.846 22.4486 11.8655 22.5 11.8785V11.0716C22.41 11.026 22.2364 11 22.037 11C21.259 11 20.8153 11.5076 20.8153 12.2495V12.5293H20.3073V13.3623H20.8153V15.7636H21.7927V13.3623H22.4871Z" fill="#252D40"/>
</svg>
