<svg width="24" height="24" viewBox="0 0 24 24" fill="none" xmlns="http://www.w3.org/2000/svg">
<path fill-rule="evenodd" clip-rule="evenodd" d="M22.1117 3.29788C22.3265 3.51564 22.4211 3.80695 22.396 4.08944L22.398 8.99999C22.3982 9.55228 21.9507 9.99999 21.3984 9.99999C20.8461 9.99999 20.3982 9.55228 20.398 8.99999L20.3969 6.39434L12.9787 13.712C12.5856 14.0998 11.9524 14.0954 11.5645 13.7021C11.1765 13.3089 11.1807 12.6757 11.5738 12.2879L18.9619 4.99999L16.3369 4.99999C15.7846 4.99999 15.3367 4.55228 15.3365 3.99999C15.3363 3.44771 15.7838 3 16.3361 3L21.3955 3L21.3975 3C21.6564 2.99949 21.9154 3.09893 22.1117 3.29788ZM6.36172 5C5.54632 5 4.7498 5.29802 4.15079 5.85072C3.54906 6.40592 3.19422 7.17707 3.19455 8L3.19865 18C3.19899 18.8229 3.55447 19.5941 4.15665 20.1493C4.75612 20.702 5.55288 21 6.36828 21L17.2103 21C18.0257 21 18.8222 20.702 19.4212 20.1493C20.0229 19.5941 20.3778 18.8229 20.3774 18L20.375 12C20.3747 11.4477 19.9268 11 19.3745 11C18.8223 11 18.3747 11.4477 18.375 12L18.3774 18C18.3775 18.2379 18.2759 18.4842 18.0646 18.6791C17.8506 18.8766 17.5442 19 17.2094 19L6.36746 19C6.03267 19 5.72618 18.8766 5.51203 18.6791C5.3006 18.4842 5.19875 18.2379 5.19865 18L5.19455 8C5.19446 7.76206 5.2961 7.51579 5.50737 7.32085C5.72136 7.12341 6.02775 6.99999 6.36254 6.99999L12.8677 6.99999C13.42 6.99999 13.8675 6.55228 13.8673 6C13.8671 5.44772 13.4192 5 12.8669 5L6.36172 5Z" fill="#252D40"/>
</svg>
