<svg width="25" height="24" viewBox="0 0 25 24" fill="none" xmlns="http://www.w3.org/2000/svg">
<path fill-rule="evenodd" clip-rule="evenodd" d="M6.5 1C5.70435 1 4.94129 1.31607 4.37868 1.87868C3.81607 2.44129 3.5 3.20435 3.5 4V20C3.5 20.7957 3.81607 21.5587 4.37868 22.1213C4.94129 22.6839 5.70435 23 6.5 23H18.5C19.2956 23 20.0587 22.6839 20.6213 22.1213C21.1839 21.5587 21.5 20.7956 21.5 20V18.9231C21.5 18.3708 21.0523 17.9231 20.5 17.9231C19.9477 17.9231 19.5 18.3708 19.5 18.9231V20C19.5 20.2652 19.3946 20.5196 19.2071 20.7071C19.0196 20.8946 18.7652 21 18.5 21H6.5C6.23478 21 5.98043 20.8946 5.79289 20.7071C5.60536 20.5196 5.5 20.2652 5.5 20V4C5.5 3.73478 5.60536 3.48043 5.79289 3.29289C5.98043 3.10536 6.23478 3 6.5 3H14.5V8C14.5 8.55228 14.9477 9 15.5 9H19.5V9.69231C19.5 10.2446 19.9477 10.6923 20.5 10.6923C21.0523 10.6923 21.5 10.2446 21.5 9.69231V8C21.5 7.75409 21.4112 7.52891 21.264 7.35476L16.2731 1.36573C16.2579 1.34711 16.2419 1.32906 16.2253 1.31161C16.209 1.29442 16.1922 1.27787 16.1748 1.26197C15.9969 1.09927 15.7601 1 15.5 1H6.5ZM16.5 4.76205V7H18.365L16.5 4.76205Z" fill="#252D40"/>
<path d="M10.5 15.2625C10.5 15.6346 10.8224 15.9594 11.2149 15.9594C11.6074 15.9594 11.9368 15.6346 11.9368 15.2625C11.9368 14.8836 11.6074 14.5724 11.2149 14.5724C10.8224 14.5724 10.5 14.8836 10.5 15.2625Z" fill="#252D40"/>
<path d="M16.1255 11H15.0742V12.7997C14.9901 12.6712 14.7307 12.4547 14.135 12.4547C13.1467 12.4547 12.4458 13.2057 12.4458 14.207C12.4458 15.2422 13.1888 15.9729 14.17 15.9729C14.5906 15.9729 14.941 15.8038 15.1022 15.5737C15.1022 15.7091 15.1232 15.8579 15.1303 15.8985H16.1536C16.1466 15.8241 16.1255 15.6008 16.1255 15.2963V11ZM13.5182 14.2138C13.5182 13.6522 13.8897 13.3816 14.3032 13.3816C14.7167 13.3816 15.0882 13.6522 15.0882 14.2138C15.0882 14.7686 14.7167 15.0528 14.3032 15.0528C13.8897 15.0528 13.5182 14.7686 13.5182 14.2138Z" fill="#252D40"/>
<path d="M18.6836 15.0528C18.2841 15.0528 17.8986 14.7754 17.8986 14.2138C17.8986 13.6455 18.2841 13.3816 18.6836 13.3816C19.0902 13.3816 19.4686 13.6455 19.4686 14.2138C19.4686 14.7821 19.0902 15.0528 18.6836 15.0528ZM18.6836 12.4344C17.6463 12.4344 16.8333 13.1719 16.8333 14.2138C16.8333 15.2558 17.6463 16 18.6836 16C19.728 16 20.534 15.2558 20.534 14.2138C20.534 13.1719 19.728 12.4344 18.6836 12.4344Z" fill="#252D40"/>
<path d="M22.8249 13.3816C23.2384 13.3816 23.4487 13.6252 23.5258 13.8823L24.479 13.6049C24.3248 13.0027 23.7641 12.4344 22.8038 12.4344C21.7805 12.4344 20.9675 13.1719 20.9675 14.2206C20.9675 15.2625 21.8015 16 22.8389 16C23.7711 16 24.3458 15.4181 24.5 14.8295L23.5608 14.5521C23.4837 14.8024 23.2524 15.0528 22.8389 15.0528C22.3973 15.0528 22.0258 14.7551 22.0258 14.2206C22.0258 13.6793 22.3833 13.3816 22.8249 13.3816Z" fill="#252D40"/>
</svg>
