<svg width="24" height="24" viewBox="0 0 24 24" fill="none" xmlns="http://www.w3.org/2000/svg">
<path fill-rule="evenodd" clip-rule="evenodd" d="M3.91682 2.78391C4.48556 2.27205 5.23637 2 6 2H14C14.2586 2 14.4943 2.09819 14.6719 2.25933L20.669 7.65671C20.8797 7.84635 21 8.11651 21 8.4V9V19.2C21 19.9786 20.6554 20.7011 20.0832 21.2161C19.5144 21.7279 18.7636 22 18 22H6C5.23637 22 4.48555 21.7279 3.91682 21.2161C3.34461 20.7011 3 19.9786 3 19.2V4.8C3 4.02136 3.34461 3.2989 3.91682 2.78391ZM6 4H13V9C13 9.55228 13.4477 10 14 10H19V19.2C19 19.3761 18.9232 19.5694 18.7452 19.7295C18.5638 19.8928 18.2972 20 18 20H6C5.70277 20 5.43616 19.8928 5.25475 19.7295C5.07681 19.5694 5 19.3761 5 19.2V4.8C5 4.62386 5.07682 4.43064 5.25475 4.2705C5.43616 4.10723 5.70277 4 6 4ZM15 5.24536L18.0607 8H15V5.24536ZM8 12C7.44772 12 7 12.4477 7 13C7 13.5523 7.44772 14 8 14H16C16.5523 14 17 13.5523 17 13C17 12.4477 16.5523 12 16 12H8ZM7 17C7 16.4477 7.44772 16 8 16H16C16.5523 16 17 16.4477 17 17C17 17.5523 16.5523 18 16 18H8C7.44772 18 7 17.5523 7 17ZM8 7C7.44772 7 7 7.44772 7 8C7 8.55228 7.44772 9 8 9H9H10C10.5523 9 11 8.55228 11 8C11 7.44772 10.5523 7 10 7H9H8Z" fill="#252D40"/>
</svg>
