<svg width="56" height="56" viewBox="0 0 56 56" fill="none" xmlns="http://www.w3.org/2000/svg">
<g id="Icon/icn-alert">
<path id="icon" fill-rule="evenodd" clip-rule="evenodd" d="M25.3039 6.7336C26.1245 6.25365 27.0532 6 28.0001 6C28.9469 6 29.8757 6.25365 30.6962 6.7336C31.5165 7.21337 32.1994 7.90199 32.6826 8.72943L32.6853 8.73414L32.6853 8.73414L51.6012 41.5402L51.6089 41.5539C52.0819 42.4048 52.3307 43.3667 52.3334 44.3444C52.336 45.3221 52.0923 46.2854 51.624 47.139C51.1556 47.9927 50.4775 48.7089 49.6536 49.2125C48.8293 49.7164 47.8893 49.9889 46.9274 49.9999L46.9159 50.0001V50H9.08421H9.07279L9.0728 49.9999C8.11086 49.9889 7.17085 49.7164 6.34659 49.2125C5.52264 48.7088 4.84458 47.9927 4.37615 47.139C3.90784 46.2854 3.66413 45.3221 3.66677 44.3444C3.6694 43.3667 3.9183 42.4048 4.39126 41.5539L4.399 41.5402L23.3149 8.73414L23.3176 8.72943C23.8007 7.90199 24.4836 7.21337 25.3039 6.7336ZM28.0001 8C27.4116 8 26.831 8.15743 26.3137 8.45998C25.7968 8.76229 25.3591 9.20037 25.0461 9.73563L25.0447 9.73788L6.13578 42.532C5.83104 43.0829 5.66849 43.7095 5.66676 44.3498C5.66503 44.9926 5.82546 45.6226 6.12957 46.1769C6.43357 46.731 6.86931 47.188 7.38971 47.5061C7.90827 47.8231 8.49437 47.9922 9.09033 48H46.9098C47.5058 47.9922 48.0919 47.8231 48.6104 47.5061C49.1308 47.188 49.5666 46.731 49.8706 46.1769C50.1747 45.6226 50.3351 44.9926 50.3334 44.3498C50.3317 43.7096 50.1691 43.0829 49.8644 42.5321L30.9554 9.73788L30.9542 9.73586C30.6412 9.20049 30.2034 8.76233 29.6865 8.45998C29.1692 8.15743 28.5885 8 28.0001 8ZM28.0001 20C28.5524 20 29.0001 20.4477 29.0001 21V30.3333C29.0001 30.8856 28.5524 31.3333 28.0001 31.3333C27.4478 31.3333 27.0001 30.8856 27.0001 30.3333V21C27.0001 20.4477 27.4478 20 28.0001 20ZM28.0001 42C29.2887 42 30.3334 40.9553 30.3334 39.6667C30.3334 38.378 29.2887 37.3333 28.0001 37.3333C26.7114 37.3333 25.6667 38.378 25.6667 39.6667C25.6667 40.9553 26.7114 42 28.0001 42Z" fill="#EB5757"/>
</g>
</svg>
