<svg width="24" height="24" viewBox="0 0 24 24" fill="none" xmlns="http://www.w3.org/2000/svg">
<path d="M18.375 4.13242V2.06189C18.375 1.88242 18.1688 1.78332 18.0295 1.89314L5.95447 11.3244C5.85188 11.4042 5.76886 11.5063 5.71176 11.6231C5.65465 11.7398 5.62497 11.8681 5.62497 11.998C5.62497 12.128 5.65465 12.2563 5.71176 12.373C5.76886 12.4898 5.85188 12.5919 5.95447 12.6717L18.0295 22.103C18.1714 22.2128 18.375 22.1137 18.375 21.9342V19.8637C18.375 19.7324 18.3134 19.6065 18.2116 19.5262L8.56876 11.9994L18.2116 4.46992C18.3134 4.38957 18.375 4.26367 18.375 4.13242Z" fill="#372101"/>
</svg>
