<svg width="16" height="16" viewBox="0 0 16 16" fill="none" xmlns="http://www.w3.org/2000/svg">
<path fill-rule="evenodd" clip-rule="evenodd" d="M2.69495 1.27123C2.30257 0.882567 1.66942 0.885575 1.28075 1.27795C0.892088 1.67033 0.895097 2.30348 1.28747 2.69215L6.64152 7.99556L1.28751 13.2989C0.895132 13.6876 0.892124 14.3208 1.28079 14.7131C1.66945 15.1055 2.30261 15.1085 2.69499 14.7199L8.0625 9.4031L13.43 14.7199C13.8224 15.1085 14.4555 15.1055 14.8442 14.7131C15.2329 14.3208 15.2299 13.6876 14.8375 13.2989L9.48348 7.99556L14.8375 2.69215C15.2299 2.30348 15.2329 1.67033 14.8442 1.27795C14.4556 0.885575 13.8224 0.882567 13.4301 1.27123L8.0625 6.58802L2.69495 1.27123Z" fill="#F9F1DE"/>
</svg>
