<svg width="25" height="24" viewBox="0 0 25 24" fill="none" xmlns="http://www.w3.org/2000/svg">
<g id="icn-floppy-save">
<path id="icon" fill-rule="evenodd" clip-rule="evenodd" d="M6.5 5C6.23478 5 5.98043 5.10536 5.79289 5.29289C5.60536 5.48043 5.5 5.73478 5.5 6V18C5.5 18.2652 5.60536 18.5196 5.79289 18.7071C5.98043 18.8946 6.23478 19 6.5 19H18.5C18.7652 19 19.0196 18.8946 19.2071 18.7071C19.3946 18.5196 19.5 18.2652 19.5 18V8.41421L16.0858 5H15.5V8C15.5 8.55228 15.0523 9 14.5 9H8.5C7.94772 9 7.5 8.55228 7.5 8V5H6.5ZM8.5 3H6.5C5.70435 3 4.94129 3.31607 4.37868 3.87868C3.81607 4.44129 3.5 5.20435 3.5 6V18C3.5 18.7956 3.81607 19.5587 4.37868 20.1213C4.94129 20.6839 5.70435 21 6.5 21H18.5C19.2957 21 20.0587 20.6839 20.6213 20.1213C21.1839 19.5587 21.5 18.7957 21.5 18V8C21.5 7.73478 21.3946 7.48043 21.2071 7.29289L17.2071 3.29289C17.0196 3.10536 16.7652 3 16.5 3H14.5H8.5ZM9.5 5V7H13.5V5H9.5ZM10.3787 11.8787C10.9413 11.3161 11.7043 11 12.5 11C13.2957 11 14.0587 11.3161 14.6213 11.8787C15.1839 12.4413 15.5 13.2043 15.5 14C15.5 14.7957 15.1839 15.5587 14.6213 16.1213C14.0587 16.6839 13.2957 17 12.5 17C11.7043 17 10.9413 16.6839 10.3787 16.1213C9.81607 15.5587 9.5 14.7957 9.5 14C9.5 13.2043 9.81607 12.4413 10.3787 11.8787ZM12.5 13C12.2348 13 11.9804 13.1054 11.7929 13.2929C11.6054 13.4804 11.5 13.7348 11.5 14C11.5 14.2652 11.6054 14.5196 11.7929 14.7071C11.9804 14.8946 12.2348 15 12.5 15C12.7652 15 13.0196 14.8946 13.2071 14.7071C13.3946 14.5196 13.5 14.2652 13.5 14C13.5 13.7348 13.3946 13.4804 13.2071 13.2929C13.0196 13.1054 12.7652 13 12.5 13Z" fill="#252D40"/>
</g>
</svg>
