<svg width="24" height="24" viewBox="0 0 25 24" fill="none" xmlns="http://www.w3.org/2000/svg">
<g id="tabler-icon-users-group">
<path id="Vector" d="M8.5 21V20C8.5 19.4696 8.71071 18.9609 9.08579 18.5858C9.46086 18.2107 9.96957 18 10.5 18H14.5C15.0304 18 15.5391 18.2107 15.9142 18.5858C16.2893 18.9609 16.5 19.4696 16.5 20V21M17.5 10H19.5C20.0304 10 20.5391 10.2107 20.9142 10.5858C21.2893 10.9609 21.5 11.4696 21.5 12V13M3.5 13V12C3.5 11.4696 3.71071 10.9609 4.08579 10.5858C4.46086 10.2107 4.96957 10 5.5 10H7.5M10.5 13C10.5 13.5304 10.7107 14.0391 11.0858 14.4142C11.4609 14.7893 11.9696 15 12.5 15C13.0304 15 13.5391 14.7893 13.9142 14.4142C14.2893 14.0391 14.5 13.5304 14.5 13C14.5 12.4696 14.2893 11.9609 13.9142 11.5858C13.5391 11.2107 13.0304 11 12.5 11C11.9696 11 11.4609 11.2107 11.0858 11.5858C10.7107 11.9609 10.5 12.4696 10.5 13ZM15.5 5C15.5 5.53043 15.7107 6.03914 16.0858 6.41421C16.4609 6.78929 16.9696 7 17.5 7C18.0304 7 18.5391 6.78929 18.9142 6.41421C19.2893 6.03914 19.5 5.53043 19.5 5C19.5 4.46957 19.2893 3.96086 18.9142 3.58579C18.5391 3.21071 18.0304 3 17.5 3C16.9696 3 16.4609 3.21071 16.0858 3.58579C15.7107 3.96086 15.5 4.46957 15.5 5ZM5.5 5C5.5 5.53043 5.71071 6.03914 6.08579 6.41421C6.46086 6.78929 6.96957 7 7.5 7C8.03043 7 8.53914 6.78929 8.91421 6.41421C9.28929 6.03914 9.5 5.53043 9.5 5C9.5 4.46957 9.28929 3.96086 8.91421 3.58579C8.53914 3.21071 8.03043 3 7.5 3C6.96957 3 6.46086 3.21071 6.08579 3.58579C5.71071 3.96086 5.5 4.46957 5.5 5Z" stroke="black" stroke-width="2" stroke-linecap="round" stroke-linejoin="round"/>
</g>
</svg>
