<svg width="24" height="24" viewBox="0 0 24 24" fill="none" xmlns="http://www.w3.org/2000/svg">
<path fill-rule="evenodd" clip-rule="evenodd" d="M10.2929 4.29289C10.4804 4.10536 10.7348 4 11 4H13C13.2652 4 13.5196 4.10536 13.7071 4.29289C13.8946 4.48043 14 4.73478 14 5C14 5.26522 13.8946 5.51957 13.7071 5.70711C13.5196 5.89464 13.2652 6 13 6H11C10.7348 6 10.4804 5.89464 10.2929 5.70711C10.1054 5.51957 10 5.26522 10 5C10 4.73478 10.1054 4.48043 10.2929 4.29289ZM8.17157 4C8.31933 3.5821 8.55928 3.19808 8.87868 2.87868C9.44129 2.31607 10.2044 2 11 2H13C13.7956 2 14.5587 2.31607 15.1213 2.87868C15.4407 3.19808 15.6807 3.5821 15.8284 4H17C17.7956 4 18.5587 4.31607 19.1213 4.87868C19.6839 5.44129 20 6.20435 20 7V19C20 19.7957 19.6839 20.5587 19.1213 21.1213C18.5587 21.6839 17.7957 22 17 22H7C6.20435 22 5.44129 21.6839 4.87868 21.1213C4.31607 20.5587 4 19.7957 4 19V7C4 6.20435 4.31607 5.44129 4.87868 4.87868C5.44129 4.31607 6.20435 4 7 4H8.17157ZM15.8284 6H17C17.2652 6 17.5196 6.10536 17.7071 6.29289C17.8946 6.48043 18 6.73478 18 7V19C18 19.2652 17.8946 19.5196 17.7071 19.7071C17.5196 19.8946 17.2652 20 17 20H7C6.73478 20 6.48043 19.8946 6.29289 19.7071C6.10536 19.5196 6 19.2652 6 19V7C6 6.73478 6.10536 6.48043 6.29289 6.29289C6.48043 6.10536 6.73478 6 7 6H8.17157C8.31933 6.4179 8.55928 6.80192 8.87868 7.12132C9.44129 7.68393 10.2044 8 11 8H13C13.7956 8 14.5587 7.68393 15.1213 7.12132C15.4407 6.80192 15.6807 6.4179 15.8284 6ZM9 12C9.55228 12 10 12.4477 10 13V17C10 17.5523 9.55228 18 9 18C8.44772 18 8 17.5523 8 17V13C8 12.4477 8.44772 12 9 12ZM13 16C13 15.4477 12.5523 15 12 15C11.4477 15 11 15.4477 11 16V17C11 17.5523 11.4477 18 12 18C12.5523 18 13 17.5523 13 17V16ZM15 14C15.5523 14 16 14.4477 16 15V17C16 17.5523 15.5523 18 15 18C14.4477 18 14 17.5523 14 17V15C14 14.4477 14.4477 14 15 14Z" fill="#252D40"/>
</svg>
