<svg width="25" height="24" viewBox="0 0 25 24" fill="none" xmlns="http://www.w3.org/2000/svg">
<path fill-rule="evenodd" clip-rule="evenodd" d="M11.5 2C10.9696 2 10.4609 2.21071 10.0858 2.58579C9.71071 2.96086 9.5 3.46957 9.5 4V10C9.5 10.5304 9.71071 11.0391 10.0858 11.4142C10.4609 11.7893 10.9696 12 11.5 12H18.0858L20.7929 14.7071C21.0789 14.9931 21.509 15.0787 21.8827 14.9239C22.2564 14.7691 22.5 14.4045 22.5 14V4C22.5 3.46957 22.2893 2.96086 21.9142 2.58579C21.5391 2.21071 21.0304 2 20.5 2H11.5ZM11.5 4H20.5V11.5858L19.2071 10.2929C19.0196 10.1054 18.7652 10 18.5 10H11.5V4ZM4.5 9C3.96957 9 3.46086 9.21071 3.08579 9.58579C2.71071 9.96086 2.5 10.4696 2.5 11V21C2.5 21.4045 2.74364 21.7691 3.11732 21.9239C3.49099 22.0787 3.92111 21.9931 4.20711 21.7071L6.91421 19H13.5C14.0304 19 14.5391 18.7893 14.9142 18.4142C15.2893 18.0391 15.5 17.5304 15.5 17V15C15.5 14.4477 15.0523 14 14.5 14C13.9477 14 13.5 14.4477 13.5 15V17H6.5C6.23478 17 5.98043 17.1054 5.79289 17.2929L4.5 18.5858V11H6.5C7.05228 11 7.5 10.5523 7.5 10C7.5 9.44772 7.05228 9 6.5 9H4.5Z" fill="#252D40"/>
</svg>
