<svg width="16" height="20" viewBox="0 0 16 20" fill="none" xmlns="http://www.w3.org/2000/svg">
<path fill-rule="evenodd" clip-rule="evenodd" d="M8.00001 0.5C8.55229 0.5 9.00001 0.947715 9.00001 1.5V11.2394L12.8273 7.76006C13.236 7.38855 13.8684 7.41867 14.2399 7.82733C14.6115 8.23598 14.5813 8.86843 14.1727 9.23994L8.67268 14.2399C8.29126 14.5867 7.70876 14.5867 7.32733 14.2399L1.82733 9.23994C1.41868 8.86843 1.38856 8.23598 1.76007 7.82733C2.13157 7.41867 2.76402 7.38855 3.17268 7.76006L7.00001 11.2394V1.5C7.00001 0.947715 7.44772 0.5 8.00001 0.5ZM1 17.5C0.447715 17.5 0 17.9477 0 18.5C0 19.0523 0.447715 19.5 1 19.5H15C15.5523 19.5 16 19.0523 16 18.5C16 17.9477 15.5523 17.5 15 17.5H1Z" fill="#A31F34"/>
</svg>
