<svg width="25" height="24" viewBox="0 0 25 24" fill="none" xmlns="http://www.w3.org/2000/svg">
<path fill-rule="evenodd" clip-rule="evenodd" d="M10.2929 18.2071C10.6834 18.5976 11.3166 18.5976 11.7071 18.2071C12.0976 17.8166 12.0976 17.1834 11.7071 16.7929L7.91421 13L19.5 13C20.0523 13 20.5 12.5523 20.5 12C20.5 11.4477 20.0523 11 19.5 11L7.91421 11L11.7071 7.20711C12.0976 6.81658 12.0976 6.18342 11.7071 5.79289C11.3166 5.40237 10.6834 5.40237 10.2929 5.79289L4.79408 11.2917C4.79003 11.2957 4.78602 11.2998 4.78205 11.3039C4.60747 11.4839 4.5 11.7294 4.5 12C4.5 12.1356 4.52699 12.2649 4.57588 12.3828C4.62468 12.5007 4.69702 12.6112 4.79289 12.7071L4.79303 12.7072L10.2929 18.2071Z" fill="#252D40"/>
</svg>
