<svg width="25" height="24" viewBox="0 0 25 24" fill="none" xmlns="http://www.w3.org/2000/svg">
<path fill-rule="evenodd" clip-rule="evenodd" d="M10.3687 5.85602C10.9292 5.31101 11.6954 5 12.5 5C13.3046 5 14.0708 5.31101 14.6313 5.85602C15.191 6.40011 15.5 7.13194 15.5 7.88889V10H9.5V7.88889C9.5 7.13194 9.80902 6.40011 10.3687 5.85602ZM7.5 10V7.88889C7.5 6.58304 8.03383 5.33657 8.97449 4.42203C9.9142 3.50843 11.1829 3 12.5 3C13.8171 3 15.0858 3.50843 16.0255 4.42203C16.9662 5.33657 17.5 6.58304 17.5 7.88889V10H17.9444C19.403 10 20.5 11.2287 20.5 12.6364V18.3636C20.5 19.7713 19.403 21 17.9444 21H7.05556C5.59704 21 4.5 19.7713 4.5 18.3636V12.6364C4.5 11.2287 5.59704 10 7.05556 10H7.5ZM16.5 12H8.5H7.05556C6.79585 12 6.5 12.2366 6.5 12.6364V18.3636C6.5 18.7634 6.79585 19 7.05556 19H17.9444C18.2042 19 18.5 18.7634 18.5 18.3636V12.6364C18.5 12.2366 18.2042 12 17.9444 12H16.5Z" fill="#252D40"/>
</svg>
