<svg width="24" height="24" viewBox="0 0 24 24" fill="none" xmlns="http://www.w3.org/2000/svg">
<g id="icn-dotts">
<path id="icon" fill-rule="evenodd" clip-rule="evenodd" d="M5 10C6.10457 10 7 10.8954 7 12C7 13.1046 6.10457 14 5 14C3.89543 14 3 13.1046 3 12C3 10.8954 3.89543 10 5 10ZM19 10C20.1046 10 21 10.8954 21 12C21 13.1046 20.1046 14 19 14C17.8954 14 17 13.1046 17 12C17 10.8954 17.8954 10 19 10ZM14 12C14 10.8954 13.1046 10 12 10C10.8954 10 10 10.8954 10 12C10 13.1046 10.8954 14 12 14C13.1046 14 14 13.1046 14 12Z" fill="#252D40"/>
</g>
</svg>
