<svg width="18" height="18" viewBox="0 0 18 18" fill="none" xmlns="http://www.w3.org/2000/svg">
<path fill-rule="evenodd" clip-rule="evenodd" d="M11.6392 0.000732422C11.087 0.000732422 10.6459 0.448398 10.6542 1.00062C10.6624 1.55284 11.1168 2.00051 11.6691 2.00051H13.7553L8.04849 7.79451C7.66384 8.18503 7.67337 8.81813 8.06977 9.20857C8.46617 9.599 9.09934 9.59893 9.48398 9.20841L15.1902 3.41495L15.2214 5.50112C15.2297 6.05335 15.6841 6.50101 16.2364 6.50101C16.7886 6.50101 17.2297 6.05335 17.2214 5.50112L17.1542 1.00131L17.1542 1.00062C17.1542 0.999584 17.1541 0.998547 17.1541 0.99751C17.1492 0.72371 17.0346 0.475809 16.8529 0.295717C16.7589 0.202623 16.6471 0.127648 16.5231 0.0765813M1.03215 2.35877C1.57314 1.80951 2.31345 1.5009 3.09022 1.5009H7.16165C7.71394 1.5009 8.16834 1.94857 8.17659 2.50079C8.18484 3.05301 7.74381 3.50068 7.19153 3.50068H3.1201C2.8739 3.50068 2.6392 3.59849 2.46764 3.77267C2.29608 3.94685 2.20172 4.18314 2.20541 4.42958L2.34948 14.0735C2.35316 14.3199 2.45458 14.5562 2.63134 14.7304C2.8081 14.9046 3.04573 15.0024 3.29193 15.0024H12.9348C13.181 15.0024 13.4157 14.9046 13.5872 14.7304C13.7588 14.5562 13.8532 14.3199 13.8495 14.0735L13.7886 10.0016C13.7804 9.4494 14.2214 9.00174 14.7737 9.00174C15.326 9.00174 15.7804 9.4494 15.7886 10.0016L15.8495 14.0735C15.8611 14.8502 15.5637 15.5951 15.0227 16.1443C14.4817 16.6936 13.7414 17.0022 12.9647 17.0022H3.3218C2.54502 17.0022 1.7955 16.6936 1.23809 16.1443C0.680701 15.5951 0.361082 14.8502 0.349479 14.0735L0.205405 4.42958C0.193803 3.65291 0.491165 2.90802 1.03215 2.35877Z" fill="#252D40"/>
</svg>
