<svg width="11" height="11" viewBox="0 0 11 11" fill="none" xmlns="http://www.w3.org/2000/svg">
<path fill-rule="evenodd" clip-rule="evenodd" d="M1.69788 0.777823C1.3055 0.389159 0.672347 0.392167 0.283682 0.784543C-0.104982 1.17692 -0.101974 1.81008 0.290401 2.19874L3.62069 5.49753L0.290425 8.79629C-0.101951 9.18496 -0.104959 9.81812 0.283706 10.2105C0.67237 10.6029 1.30553 10.6059 1.6979 10.2172L5.04167 6.90507L8.38543 10.2172C8.77781 10.6059 9.41096 10.6029 9.79963 10.2105C10.1883 9.81812 10.1853 9.18496 9.79291 8.79629L6.46265 5.49753L9.79293 2.19874C10.1853 1.81008 10.1883 1.17692 9.79965 0.784543C9.41099 0.392167 8.77783 0.389159 8.38545 0.777823L5.04167 4.08999L1.69788 0.777823Z" fill="#252D40"/>
</svg>
