<svg width="16" height="16" viewBox="0 0 16 16" fill="none" xmlns="http://www.w3.org/2000/svg">
<path fill-rule="evenodd" clip-rule="evenodd" d="M6.96031 2.26276C7.27994 2.08966 7.63788 2 8 2C8.36212 2 8.72006 2.08966 9.03969 2.26276C9.35952 2.43597 9.63217 2.68808 9.82787 2.99842L9.83088 3.0032L9.83087 3.00321L14.695 10.8142L14.7035 10.8281C14.8956 11.1481 14.9989 11.5141 15 11.8893C15.0011 12.2644 14.8999 12.631 14.7096 12.9521C14.5195 13.273 14.2482 13.5356 13.9265 13.7177C13.605 13.8997 13.2425 13.9961 12.8747 13.9999L12.8641 14.0001V14H3.13592H3.12535L3.12535 13.9999C2.75749 13.9961 2.39496 13.8997 2.0735 13.7177C1.75181 13.5356 1.48053 13.273 1.29041 12.9521C1.10011 12.631 0.998917 12.2644 1.00001 11.8893C1.0011 11.5141 1.10442 11.1481 1.29654 10.8281L1.30505 10.8142L6.16913 3.00321L7.01799 3.53182L6.17213 2.99842C6.36783 2.68808 6.64048 2.43597 6.96031 2.26276ZM7.86456 4.06413L3.00945 11.8607C3.00242 11.8735 3.00003 11.8852 3 11.8951C2.99997 11.9058 3.0027 11.9185 3.01102 11.9326C3.01952 11.9469 3.03464 11.9636 3.05865 11.9772C3.08215 11.9905 3.11144 11.9992 3.14347 12H12.8565C12.8886 11.9992 12.9179 11.9905 12.9413 11.9772C12.9654 11.9636 12.9805 11.9469 12.989 11.9326C12.9973 11.9185 13 11.9058 13 11.8951C13 11.8852 12.9976 11.8735 12.9906 11.8607L8.13544 4.06413C8.12629 4.05004 8.11083 4.03419 8.08726 4.02142C8.06287 4.00821 8.03268 4 8 4C7.96732 4 7.93713 4.00821 7.91274 4.02142C7.88917 4.03419 7.87371 4.05004 7.86456 4.06413ZM8 5.66242C8.55228 5.66242 9 6.11013 9 6.66242V7.66242C9 8.2147 8.55228 8.66242 8 8.66242C7.44772 8.66242 7 8.2147 7 7.66242V6.66242C7 6.11013 7.44772 5.66242 8 5.66242ZM8 11.5908C8.55228 11.5908 9 11.1431 9 10.5908C9 10.0385 8.55228 9.59077 8 9.59077C7.44772 9.59077 7 10.0385 7 10.5908C7 11.1431 7.44772 11.5908 8 11.5908Z" fill="#D93B3B"/>
</svg>
