<svg width="32" height="32" viewBox="0 0 32 32" fill="none" xmlns="http://www.w3.org/2000/svg">
<path d="M13.3333 23C13.3333 23.5523 13.781 24 14.3333 24H17.6667C18.219 24 18.6667 23.5523 18.6667 23V22.3333C18.6667 21.781 18.219 21.3333 17.6667 21.3333H14.3333C13.781 21.3333 13.3333 21.781 13.3333 22.3333V23ZM5 8C4.44772 8 4 8.44772 4 9V9.66667C4 10.219 4.44772 10.6667 5 10.6667H27C27.5523 10.6667 28 10.219 28 9.66667V9C28 8.44772 27.5523 8 27 8H5ZM8 16.3333C8 16.8856 8.44772 17.3333 9 17.3333H23C23.5523 17.3333 24 16.8856 24 16.3333V15.6667C24 15.1144 23.5523 14.6667 23 14.6667H9C8.44772 14.6667 8 15.1144 8 15.6667V16.3333Z" fill="#252D40"/>
</svg>
