<svg width="20" height="21" viewBox="0 0 20 21" fill="none" xmlns="http://www.w3.org/2000/svg">
<path fill-rule="evenodd" clip-rule="evenodd" d="M4.87868 1.37868C5.44129 0.81607 6.20435 0.5 7 0.5H13C13.7956 0.5 14.5587 0.81607 15.1213 1.37868C15.6839 1.94129 16 2.70435 16 3.5V6.5H17C17.7957 6.5 18.5587 6.81607 19.1213 7.37868C19.6839 7.94129 20 8.70435 20 9.5V13.5C20 14.2957 19.6839 15.0587 19.1213 15.6213C18.5587 16.1839 17.7957 16.5 17 16.5H16V17.5C16 18.2957 15.6839 19.0587 15.1213 19.6213C14.5587 20.1839 13.7957 20.5 13 20.5H7C6.20435 20.5 5.44129 20.1839 4.87868 19.6213C4.31607 19.0587 4 18.2957 4 17.5V16.5H3C2.20435 16.5 1.44129 16.1839 0.87868 15.6213C0.31607 15.0587 0 14.2956 0 13.5V9.5C0 8.70435 0.31607 7.94129 0.87868 7.37868C1.44129 6.81607 2.20435 6.5 3 6.5H4V3.5C4 2.70435 4.31607 1.94129 4.87868 1.37868ZM6 15.5V17.5C6 17.7652 6.10536 18.0196 6.29289 18.2071C6.48043 18.3946 6.73478 18.5 7 18.5H13C13.2652 18.5 13.5196 18.3946 13.7071 18.2071C13.8946 18.0196 14 17.7652 14 17.5V15.5V13.5C14 13.2348 13.8946 12.9804 13.7071 12.7929C13.5196 12.6054 13.2652 12.5 13 12.5H7C6.73478 12.5 6.48043 12.6054 6.29289 12.7929C6.10536 12.9804 6 13.2348 6 13.5V15.5ZM16 14.5V13.5C16 12.7043 15.6839 11.9413 15.1213 11.3787C14.5587 10.8161 13.7957 10.5 13 10.5H7C6.20435 10.5 5.44129 10.8161 4.87868 11.3787C4.31607 11.9413 4 12.7044 4 13.5V14.5H3C2.73478 14.5 2.48043 14.3946 2.29289 14.2071C2.10536 14.0196 2 13.7652 2 13.5V9.5C2 9.23478 2.10536 8.98043 2.29289 8.79289C2.48043 8.60536 2.73478 8.5 3 8.5H5H15H17C17.2652 8.5 17.5196 8.60536 17.7071 8.79289C17.8946 8.98043 18 9.23478 18 9.5V13.5C18 13.7652 17.8946 14.0196 17.7071 14.2071C17.5196 14.3946 17.2652 14.5 17 14.5H16ZM14 3.5V6.5H6V3.5C6 3.23478 6.10536 2.98043 6.29289 2.79289C6.48043 2.60536 6.73478 2.5 7 2.5H13C13.2652 2.5 13.5196 2.60536 13.7071 2.79289C13.8946 2.98043 14 3.23478 14 3.5Z" fill="#252D40"/>
</svg>
