<svg width="16" height="16" viewBox="0 0 16 16" fill="none" xmlns="http://www.w3.org/2000/svg">
<path d="M6.66663 13.3334H3.99996C3.64634 13.3334 3.3072 13.2085 3.05715 12.9862C2.8071 12.764 2.66663 12.4625 2.66663 12.1482V3.85187C2.66663 3.53754 2.8071 3.23608 3.05715 3.01382C3.3072 2.79155 3.64634 2.66669 3.99996 2.66669H6.66663" stroke="#252D40" stroke-width="2" stroke-linecap="round" stroke-linejoin="round"/>
<path fill-rule="evenodd" clip-rule="evenodd" d="M10.7071 3.95958C10.3166 3.56906 9.68342 3.56906 9.29289 3.95958C8.90237 4.3501 8.90237 4.98327 9.29289 5.37379L10.9191 7.00002H6C5.44772 7.00002 5 7.44774 5 8.00002C5 8.55231 5.44772 9.00002 6 9.00002H10.9191L9.29289 10.6262C8.90237 11.0168 8.90237 11.6499 9.29289 12.0405C9.68342 12.431 10.3166 12.431 10.7071 12.0405L14.0403 8.70726L14.0404 8.70713M14.2575 7.61724C14.2087 7.49929 14.1363 7.38879 14.0404 7.29291L10.7071 3.95958M14.2575 7.61724C14.3063 7.73514 14.3333 7.86443 14.3333 8.00002L14.2575 7.61724ZM14.3333 8.00002C14.3333 8.27508 14.2223 8.52421 14.0426 8.705L14.3333 8.00002Z" fill="#252D40"/>
</svg>
