<svg width="19" height="18" viewBox="0 0 19 18" fill="none" xmlns="http://www.w3.org/2000/svg">
<path fill-rule="evenodd" clip-rule="evenodd" d="M7.5 4C7.5 2.89543 8.39543 2 9.5 2C10.6046 2 11.5 2.89543 11.5 4C11.5 5.10457 10.6046 6 9.5 6C8.39543 6 7.5 5.10457 7.5 4ZM9.5 0C7.29086 0 5.5 1.79086 5.5 4C5.5 6.20914 7.29086 8 9.5 8C11.7091 8 13.5 6.20914 13.5 4C13.5 1.79086 11.7091 0 9.5 0ZM14.5569 13.5574C15.4807 14.2503 16.0954 15.0961 16.357 16H2.64304C2.90455 15.0961 3.51929 14.2503 4.44315 13.5574C5.70174 12.6134 7.48631 12 9.5 12C11.5137 12 13.2983 12.6134 14.5569 13.5574ZM9.5 10C7.09541 10 4.87998 10.7297 3.24315 11.9574C1.60601 13.1852 0.5 14.9578 0.5 17C0.5 17.5523 0.947715 18 1.5 18H17.5C18.0523 18 18.5 17.5523 18.5 17C18.5 14.9578 17.394 13.1852 15.7569 11.9574C14.12 10.7297 11.9046 10 9.5 10Z" fill="#252D40"/>
</svg>
