<svg width="24" height="24" viewBox="0 0 24 24" fill="none" xmlns="http://www.w3.org/2000/svg">
<path fill-rule="evenodd" clip-rule="evenodd" d="M16.0002 3C16.0002 2.44772 15.5525 2 15.0002 2C14.448 2 14.0002 2.44772 14.0002 3V3.5H10.0002V3C10.0002 2.44772 9.55253 2 9.00024 2C8.44796 2 8.00024 2.44772 8.00024 3V3.5H6.37524C4.78743 3.5 3.50024 4.78718 3.50024 6.375V10.5V17.625C3.50024 19.2128 4.78743 20.5 6.37524 20.5H17.6252C19.2131 20.5 20.5002 19.2128 20.5002 17.625V10.5V6.375C20.5002 4.78718 19.2131 3.5 17.6252 3.5H16.0002V3ZM18.5002 9.5V6.375C18.5002 5.89175 18.1085 5.5 17.6252 5.5H16.0002V6C16.0002 6.55228 15.5525 7 15.0002 7C14.448 7 14.0002 6.55228 14.0002 6V5.5H10.0002V6C10.0002 6.55228 9.55253 7 9.00024 7C8.44796 7 8.00024 6.55228 8.00024 6V5.5H6.37524C5.89199 5.5 5.50024 5.89175 5.50024 6.375V9.5H18.5002ZM5.50024 11.5H18.5002V17.625C18.5002 18.1082 18.1085 18.5 17.6252 18.5H6.37524C5.89199 18.5 5.50024 18.1082 5.50024 17.625V11.5ZM8.50024 13.5C7.94796 13.5 7.50024 13.9477 7.50024 14.5V15.5C7.50024 16.0523 7.94796 16.5 8.50024 16.5H9.50024C10.0525 16.5 10.5002 16.0523 10.5002 15.5V14.5C10.5002 13.9477 10.0525 13.5 9.50024 13.5H8.50024ZM14.5001 13.5H15.5001C16.0523 13.5 16.5001 13.9477 16.5001 14.5V15.5C16.5001 16.0523 16.0523 16.5 15.5001 16.5H14.5001C13.9478 16.5 13.5001 16.0523 13.5001 15.5V14.5C13.5001 13.9477 13.9478 13.5 14.5001 13.5Z" fill="#252D40"/>
</svg>
