<svg width="32" height="32" viewBox="0 0 32 32" fill="none" xmlns="http://www.w3.org/2000/svg">
<rect x="18" y="6" width="10" height="2" fill="#919191"/>
<rect x="18" y="10" width="10" height="1" fill="#919191"/>
<rect x="18" y="12" width="6" height="1" fill="#919191"/>
<rect x="4" y="19" width="10" height="2" fill="#919191"/>
<rect x="4" y="23" width="10" height="1" fill="#919191"/>
<rect x="4" y="25" width="6" height="1" fill="#919191"/>
<path fill-rule="evenodd" clip-rule="evenodd" d="M28 17H16V26.2562L18.6808 22.4265L19.4721 21.2961L20.3 22.4L22.452 25.2693L23.6679 23.4453L24.3925 22.3585L25.2526 23.3415L28 26.4814V17ZM26.6712 28L24.6075 25.6415L23.7245 26.966L24.5 28H26.6712ZM22 28H17.2207L19.5279 24.7039L22 28ZM24.5 21C25.3284 21 26 20.3284 26 19.5C26 18.6716 25.3284 18 24.5 18C23.6716 18 23 18.6716 23 19.5C23 20.3284 23.6716 21 24.5 21Z" fill="#919191"/>
<path fill-rule="evenodd" clip-rule="evenodd" d="M16 4H4V13.2562L6.68077 9.42654L7.47207 8.2961L8.3 9.4L10.452 12.2693L11.6679 10.4453L12.3925 9.35852L13.2526 10.3415L16 13.4814V4ZM14.6712 15L12.6075 12.6415L11.7245 13.966L12.5 15H14.6712ZM10 15H5.22066L7.52793 11.7039L10 15ZM12.5 8C13.3284 8 14 7.32843 14 6.5C14 5.67157 13.3284 5 12.5 5C11.6716 5 11 5.67157 11 6.5C11 7.32843 11.6716 8 12.5 8Z" fill="#919191"/>
</svg>
