<svg width="722" height="392" viewBox="0 0 722 392" fill="none" xmlns="http://www.w3.org/2000/svg">
<g clip-path="url(#clip0_155_6245)">
<path d="M363.317 392C559.093 392 717.801 381.51 717.801 368.569C717.801 355.628 559.093 345.138 363.317 345.138C167.541 345.138 8.83252 355.628 8.83252 368.569C8.83252 381.51 167.541 392 363.317 392Z" fill="#F2F2F2"/>
<path d="M349.73 112.058C291.975 112.058 250.507 149.055 250.507 235.381C250.507 333.216 291.975 359.114 349.73 359.114C407.485 359.114 451.423 330.75 451.423 235.381C451.423 133.434 407.485 112.058 349.73 112.058ZM350.11 326.639C310.107 326.639 289.208 303.207 289.208 235.444C289.208 175.653 310.963 144.122 350.965 144.122C390.968 144.122 412.722 164.833 412.722 235.444C412.722 301.499 390.112 326.639 350.11 326.639Z" fill="#2F2E41"/>
<path d="M215.924 290.876H192.045V220.666C192.045 216.937 190.561 213.361 187.92 210.724C185.279 208.087 181.697 206.606 177.962 206.606H172.367C170.517 206.606 168.686 206.969 166.978 207.676C165.269 208.382 163.717 209.418 162.409 210.724C161.101 212.029 160.064 213.579 159.356 215.285C158.648 216.991 158.284 218.82 158.284 220.666V290.876H90.9288C89.5431 290.876 88.181 290.518 86.9746 289.838C85.7681 289.157 84.7583 288.177 84.0431 286.992C83.3279 285.807 82.9315 284.458 82.8925 283.075C82.8535 281.692 83.1732 280.322 83.8205 279.099L155.109 144.382C155.998 142.702 156.536 140.86 156.692 138.967C156.848 137.074 156.619 135.169 156.017 133.367C155.415 131.565 154.454 129.903 153.192 128.482C151.929 127.061 150.391 125.91 148.671 125.099L144.462 123.115C141.195 121.574 137.459 121.347 134.028 122.479C130.597 123.612 127.733 126.019 126.03 129.201L39.0842 291.597C37.6037 294.362 36.8291 297.449 36.8291 300.585C36.8291 303.089 37.323 305.568 38.2827 307.881C39.2423 310.194 40.6489 312.296 42.4221 314.067C44.1953 315.837 46.3004 317.242 48.6172 318.2C50.934 319.158 53.4171 319.651 55.9248 319.651H158.284V364.047C158.284 366.26 158.721 368.452 159.569 370.497C160.417 372.542 161.661 374.4 163.228 375.965C164.796 377.53 166.657 378.771 168.705 379.618C170.753 380.465 172.948 380.901 175.164 380.901H175.164C177.381 380.901 179.576 380.465 181.624 379.618C183.672 378.771 185.533 377.53 187.1 375.965C188.668 374.4 189.911 372.542 190.76 370.497C191.608 368.452 192.045 366.26 192.045 364.047V319.651H215.924C219.746 319.651 223.411 318.135 226.113 315.437C228.816 312.739 230.334 309.079 230.334 305.263C230.334 301.448 228.816 297.788 226.113 295.09C223.411 292.392 219.746 290.876 215.924 290.876Z" fill="#6C63FF"/>
<path d="M658.103 290.876H634.223V220.666C634.223 216.937 632.74 213.361 630.099 210.724C627.458 208.087 623.876 206.606 620.141 206.606H614.545C612.696 206.606 610.865 206.969 609.156 207.676C607.448 208.382 605.895 209.418 604.588 210.724C603.28 212.029 602.243 213.579 601.535 215.285C600.827 216.991 600.463 218.82 600.463 220.666V290.876H533.107C531.722 290.876 530.36 290.518 529.153 289.838C527.947 289.157 526.937 288.177 526.222 286.992C525.507 285.807 525.11 284.458 525.071 283.075C525.032 281.692 525.352 280.322 525.999 279.099L597.287 144.382C598.176 142.702 598.715 140.86 598.871 138.967C599.027 137.074 598.797 135.169 598.196 133.367C597.594 131.565 596.633 129.903 595.37 128.482C594.108 127.061 592.57 125.91 590.849 125.099L586.641 123.115C583.373 121.574 579.637 121.347 576.206 122.479C572.775 123.612 569.912 126.019 568.208 129.201L481.263 291.597C479.782 294.362 479.008 297.449 479.008 300.585C479.008 305.642 481.02 310.491 484.601 314.067C488.182 317.642 493.039 319.651 498.103 319.651H600.463V364.047C600.463 368.517 602.241 372.804 605.407 375.965C608.573 379.125 612.866 380.901 617.343 380.901C621.82 380.901 626.113 379.125 629.279 375.965C632.445 372.804 634.223 368.517 634.223 364.047V319.651H658.102C661.924 319.651 665.589 318.135 668.292 315.437C670.994 312.739 672.512 309.079 672.512 305.263C672.512 301.448 670.994 297.788 668.292 295.09C665.589 292.392 661.924 290.876 658.103 290.876Z" fill="#6C63FF"/>
<path d="M222.511 282.654H198.632V212.445C198.632 210.598 198.268 208.77 197.56 207.064C196.852 205.358 195.815 203.808 194.507 202.502C193.2 201.196 191.647 200.161 189.939 199.454C188.23 198.748 186.399 198.384 184.55 198.384H178.954C175.219 198.384 171.637 199.865 168.996 202.502C166.355 205.139 164.872 208.715 164.872 212.445V282.654H97.5162C96.1305 282.654 94.7684 282.297 93.562 281.616C92.3555 280.936 91.3457 279.955 90.6305 278.77C89.9153 277.585 89.5189 276.236 89.48 274.853C89.441 273.47 89.7606 272.101 90.4079 270.877L161.696 136.16C162.585 134.481 163.124 132.639 163.28 130.746C163.436 128.852 163.206 126.947 162.604 125.145C162.003 123.343 161.042 121.681 159.779 120.26C158.516 118.839 156.978 117.689 155.258 116.877L151.05 114.893C147.782 113.353 144.046 113.125 140.615 114.258C137.184 115.391 134.321 117.797 132.617 120.979L45.6717 283.375C44.1911 286.14 43.4165 289.228 43.4165 292.363V292.363C43.4165 297.42 45.4284 302.269 49.0095 305.845C52.5906 309.421 57.4477 311.429 62.5122 311.429H164.872V355.825C164.872 358.039 165.308 360.23 166.157 362.275C167.005 364.32 168.248 366.178 169.816 367.743C171.383 369.308 173.244 370.55 175.292 371.397C177.34 372.244 179.535 372.679 181.752 372.679H181.752C186.229 372.679 190.522 370.904 193.688 367.743C196.854 364.582 198.632 360.295 198.632 355.825V311.429H222.511C224.404 311.429 226.277 311.057 228.026 310.334C229.774 309.611 231.363 308.551 232.701 307.215C234.039 305.879 235.1 304.293 235.824 302.548C236.548 300.802 236.921 298.931 236.921 297.042V297.042C236.921 295.152 236.548 293.281 235.824 291.536C235.1 289.79 234.039 288.204 232.701 286.868C231.363 285.532 229.774 284.472 228.026 283.749C226.277 283.026 224.404 282.654 222.511 282.654V282.654Z" stroke="#3F3D56" stroke-miterlimit="10"/>
<path d="M670.454 282.654H646.575V212.445C646.575 208.715 645.091 205.139 642.45 202.502C639.809 199.865 636.227 198.384 632.492 198.384H626.897C625.048 198.384 623.216 198.748 621.508 199.454C619.799 200.161 618.247 201.196 616.939 202.502C615.631 203.808 614.594 205.358 613.886 207.064C613.179 208.77 612.815 210.598 612.815 212.445V282.654H545.459C544.073 282.654 542.711 282.297 541.505 281.616C540.298 280.936 539.289 279.955 538.573 278.77C537.858 277.585 537.462 276.236 537.423 274.853C537.384 273.47 537.704 272.101 538.351 270.877L609.639 136.16C610.528 134.481 611.067 132.639 611.223 130.746C611.379 128.852 611.149 126.947 610.547 125.145C609.946 123.343 608.985 121.681 607.722 120.26C606.459 118.839 604.921 117.689 603.201 116.877L598.993 114.893C595.725 113.353 591.989 113.125 588.558 114.258C585.127 115.391 582.264 117.797 580.56 120.979L493.615 283.375C492.134 286.14 491.359 289.228 491.359 292.363C491.359 297.42 493.371 302.269 496.952 305.845C500.534 309.421 505.391 311.429 510.455 311.429H612.815V355.825C612.815 360.295 614.593 364.582 617.759 367.743C620.924 370.904 625.218 372.679 629.695 372.679V372.679C634.172 372.679 638.465 370.904 641.631 367.743C644.796 364.582 646.575 360.295 646.575 355.825V311.429H670.454C672.347 311.429 674.22 311.057 675.969 310.334C677.717 309.611 679.305 308.551 680.644 307.215C681.982 305.879 683.043 304.293 683.767 302.548C684.491 300.802 684.864 298.931 684.864 297.042V297.042C684.864 293.226 683.346 289.566 680.644 286.868C677.941 284.17 674.276 282.654 670.454 282.654V282.654Z" stroke="#3F3D56" stroke-miterlimit="10"/>
<path d="M362.905 104.659C305.15 104.659 263.683 141.655 263.683 227.981C263.683 325.817 305.15 351.715 362.905 351.715C420.66 351.715 464.598 323.35 464.598 227.981C464.598 126.035 420.66 104.659 362.905 104.659ZM363.285 319.24C323.282 319.24 302.384 295.808 302.384 228.044C302.384 168.253 324.138 136.723 364.14 136.723C404.143 136.723 425.897 157.434 425.897 228.044C425.897 294.099 403.287 319.24 363.285 319.24V319.24Z" stroke="#3F3D56" stroke-miterlimit="10"/>
<path d="M316.611 20.9019C321.399 20.9019 325.28 17.0264 325.28 12.2456C325.28 7.4649 321.399 3.58936 316.611 3.58936C311.822 3.58936 307.941 7.4649 307.941 12.2456C307.941 17.0264 311.822 20.9019 316.611 20.9019Z" fill="#2F2E41"/>
<path d="M337.756 62.9163C351.187 62.9163 362.074 48.832 362.074 31.4581C362.074 14.0843 351.187 0 337.756 0C324.326 0 313.439 14.0843 313.439 31.4581C313.439 48.832 324.326 62.9163 337.756 62.9163Z" fill="#2F2E41"/>
<path opacity="0.1" d="M337.756 53.4153C325.575 53.4153 315.485 41.8273 313.715 26.7075C313.531 28.2843 313.439 29.8704 313.439 31.4579C313.439 48.8318 324.326 62.9161 337.756 62.9161C351.187 62.9161 362.074 48.8318 362.074 31.4579C362.074 29.8704 361.982 28.2843 361.798 26.7075C360.028 41.8273 349.938 53.4153 337.756 53.4153Z" fill="black"/>
<path d="M387.239 123.585C386.717 125.727 384.465 127.444 381.972 128.642C376.729 131.163 370.262 131.915 363.989 132.168C362.389 132.265 360.783 132.235 359.188 132.079C356.096 131.781 353.195 130.449 350.955 128.301C350.795 128.197 350.664 128.054 350.575 127.886C350.485 127.717 350.44 127.529 350.443 127.339C350.445 127.148 350.497 126.961 350.591 126.796C350.686 126.631 350.822 126.492 350.985 126.393C354.324 122.73 359.897 120.484 365.511 118.867C369.768 117.641 377.191 114.465 381.834 114.893C386.331 115.309 387.899 120.879 387.239 123.585Z" fill="#3F3D56"/>
<path opacity="0.1" d="M387.239 123.585C386.717 125.727 384.465 127.444 381.972 128.642C376.729 131.163 370.262 131.915 363.989 132.168C362.389 132.265 360.783 132.235 359.188 132.079C356.096 131.781 353.195 130.449 350.955 128.301C350.795 128.197 350.664 128.054 350.575 127.886C350.485 127.717 350.44 127.529 350.443 127.339C350.445 127.148 350.497 126.961 350.591 126.796C350.686 126.631 350.822 126.492 350.985 126.393C354.324 122.73 359.897 120.484 365.511 118.867C369.768 117.641 377.191 114.465 381.834 114.893C386.331 115.309 387.899 120.879 387.239 123.585Z" fill="black"/>
<path d="M320.577 107.57C318.977 110.702 318.687 114.34 319.771 117.685C320.875 121.005 322.94 123.923 325.705 126.07C332.488 131.499 341.825 132.246 350.518 132.171C358.138 132.105 365.746 131.584 373.303 130.612C375.835 130.388 378.324 129.811 380.696 128.898C383.534 127.672 386.027 125.424 387.037 122.506C388.047 119.589 387.33 116.017 384.931 114.07C382.823 112.359 379.916 112.123 377.205 111.961L361.69 111.03C363.222 109.481 365.263 108.605 367.13 107.479C369.607 105.985 371.252 103.477 373.053 101.216C375.827 97.9049 378.846 94.806 382.083 91.9449C382.588 94.837 384.421 97.2119 386.577 99.2075C388.734 101.203 391.22 102.81 393.461 104.709C398.89 109.311 402.799 115.557 408.509 119.807C412.437 118.776 416.109 116.946 419.294 114.431L417.075 110.417C416.89 110.004 416.602 109.646 416.238 109.375C415.61 108.99 414.801 109.188 414.071 109.079C412.122 108.787 411.271 106.54 410.506 104.726C408.406 99.7466 404.385 95.8831 400.951 91.7071C398.417 88.6244 396.168 85.3179 394.234 81.8285C393.08 79.7474 392.024 77.5806 390.459 75.7877C388.893 73.9947 386.7 72.5851 384.318 72.5801C382.213 72.5757 380.271 73.6426 378.462 74.7158C372.95 77.9848 367.646 81.5924 362.582 85.5177C359.932 87.572 357.298 89.7424 354.189 91.0021C352.88 91.5324 351.501 91.8949 350.245 92.5402C348.045 93.6703 346.376 95.5826 344.579 97.28C338.17 103.334 329.394 107.257 320.577 107.57Z" fill="#3F3D56"/>
<path d="M353.019 64.4787C352.947 66.3293 352.552 68.1532 351.854 69.8688C351.499 70.7244 350.972 71.498 350.306 72.1413C349.639 72.7846 348.846 73.2839 347.978 73.6079C346.744 73.9378 345.451 73.9797 344.199 73.7303C343.107 73.6164 342.055 73.2585 341.12 72.6831C339.665 71.6845 338.94 69.9026 338.676 68.1586C338.411 66.4168 338.53 64.637 338.361 62.8825C338.196 61.4654 337.926 60.0625 337.553 58.6853C337.439 58.2272 337.322 57.7711 337.208 57.3151C337.096 56.8591 336.986 56.403 336.885 55.947C336.792 55.5184 336.705 55.0877 336.631 54.6549C336.57 54.2896 336.515 53.9222 336.474 53.5528C336.437 52.4574 336.255 51.3719 335.931 50.3246C335.627 49.6454 335.247 49.003 334.798 48.4097C334.605 48.1352 334.419 47.8608 334.248 47.5757C333.752 46.835 333.522 45.9489 333.594 45.0612C333.615 44.9239 333.648 44.7889 333.694 44.6579C333.711 44.6073 333.73 44.5566 333.751 44.508C333.941 44.4565 334.116 44.3593 334.26 44.225C334.404 44.0907 334.513 43.9233 334.578 43.7374C334.65 43.338 334.616 42.9264 334.478 42.5445C334.32 42.0108 334.104 41.4961 333.833 41.0096C333.656 40.6887 333.053 40.1102 333.049 39.7428C333.04 39.0039 334.487 38.4085 335.073 38.1171C336.86 37.2232 338.854 36.8196 340.849 36.9475C342.129 37.034 343.516 37.4267 344.222 38.4971C344.857 39.462 344.772 40.7119 345.043 41.833C345.071 41.9959 345.14 42.1491 345.244 42.2785C345.382 42.404 345.555 42.4837 345.74 42.5065C346.054 42.5687 346.375 42.5815 346.692 42.5445H346.694C346.778 42.5379 346.861 42.5259 346.944 42.5086C347.438 42.4176 347.905 42.2162 348.31 41.9195C348.572 41.8499 348.836 41.7929 349.103 41.7485C349.113 41.7474 349.124 41.7453 349.134 41.7422C350.194 45.0801 350.331 48.6588 351.198 52.0579C351.627 53.7491 352.243 55.4191 352.329 57.1588C352.336 57.2348 352.338 57.3129 352.34 57.391C352.353 57.9505 352.308 58.5142 352.332 59.0716C352.34 59.3226 352.368 59.5725 352.416 59.819C352.511 60.2154 352.629 60.606 352.769 60.9887L352.776 61.0077C352.816 61.1301 352.854 61.2547 352.886 61.3793C352.909 61.47 352.93 61.5587 352.947 61.6495L352.949 61.6558C353.106 62.5888 353.129 63.5392 353.019 64.4787Z" fill="#FBBEBE"/>
<path d="M338.179 42.648C345.069 42.648 350.655 37.071 350.655 30.1914C350.655 23.3119 345.069 17.7349 338.179 17.7349C331.289 17.7349 325.703 23.3119 325.703 30.1914C325.703 37.071 331.289 42.648 338.179 42.648Z" fill="#FBBEBE"/>
<path d="M417.386 98.0607C417.025 94.6622 415.815 91.4086 413.868 88.5979C414.191 90.5191 414.515 92.4397 414.84 94.3596C414.436 94.4763 414.007 94.4727 413.605 94.3493C413.203 94.2259 412.846 93.9881 412.578 93.665C412.052 93.01 411.65 92.2654 411.391 91.4671C409.974 87.9539 408.121 84.6323 405.875 81.58C397.932 80.9191 390.081 77.6319 383.096 73.7999C376.11 69.97 369.572 65.378 362.678 61.3855C361.483 60.6642 360.238 60.0292 358.952 59.4854C356.796 58.6218 354.374 58.1742 352.33 57.1587C352.192 57.0911 352.055 57.0194 351.919 56.9455C351.458 56.6946 351.02 56.4013 350.613 56.0693C350.393 55.8908 350.183 55.699 349.987 55.495C348.967 54.3099 348.158 52.9588 347.595 51.5005C346.498 49.0767 346.107 46.1526 345.011 43.7288C345.515 43.2591 346.08 42.8605 346.692 42.5444H346.694C346.783 42.498 346.872 42.4536 346.963 42.4114C347.396 42.2076 347.847 42.043 348.31 41.9195C348.572 41.8498 348.836 41.7928 349.103 41.7484C349.114 41.7474 349.124 41.7452 349.135 41.7421C350.37 41.5411 351.636 41.6411 352.825 42.0335C354.563 42.6204 356.028 43.7922 357.489 44.9006C359.863 46.5703 362.14 48.3735 364.309 50.3013C365.514 51.454 366.614 52.7208 367.91 53.768C368.987 54.598 370.123 55.3495 371.308 56.0165C378.322 60.1884 385.337 64.3596 392.352 68.5301C394.727 69.9425 397.103 71.355 399.425 72.8498C402.952 75.1215 406.352 77.5833 409.751 80.0429C411.753 81.4913 413.755 82.9403 415.756 84.3901C416.412 84.8082 416.989 85.3402 417.458 85.9609C417.873 86.6656 418.13 87.4512 418.213 88.2643C418.715 91.5491 418.432 94.9061 417.386 98.0607Z" fill="#FBBEBE"/>
<path d="M356.113 73.8464C355.271 77.615 351.456 79.8931 349.462 83.2036C346.984 87.3122 347.995 92.0879 348.925 96.7939C347.225 98.2571 345.524 99.7202 343.823 101.183C342.884 101.988 341.945 102.796 340.934 103.508C339.461 104.494 337.92 105.377 336.325 106.151C334.819 106.924 333.313 107.697 331.808 108.471C330.408 109.257 328.925 109.885 327.386 110.342C324.42 111.102 321.269 110.57 318.334 109.69C317.988 109.599 317.655 109.463 317.344 109.286C317.161 109.177 317.002 109.033 316.875 108.862C316.586 108.344 316.48 107.744 316.577 107.158C316.875 102.226 318.082 97.3978 319.286 92.6051C319.929 89.7299 320.793 86.9086 321.872 84.1663C322.929 81.8166 324.145 79.5411 325.511 77.3553C327.018 74.6052 328.804 72.0166 330.839 69.6301C331.831 68.7116 332.665 67.6376 333.309 66.4505C334.06 64.7404 333.77 62.779 333.922 60.9169C334.039 59.5178 334.411 58.1518 335.02 56.8864V56.8843C335.346 56.2027 335.738 55.5549 336.191 54.9504C336.397 55.4275 336.602 55.904 336.807 56.3797C336.942 56.6922 337.076 57.004 337.208 57.3151C337.382 57.7162 337.554 58.1159 337.724 58.5143C338.217 59.6586 338.709 60.8022 339.2 61.9451C339.731 63.3846 340.488 64.7308 341.442 65.9333C341.878 66.5491 342.466 67.0414 343.15 67.3622C343.834 67.6831 344.589 67.8214 345.342 67.7637C346.095 67.7061 346.82 67.4544 347.447 67.0333C348.073 66.6122 348.58 66.0361 348.917 65.3612C349.628 64.1013 350.142 62.7409 350.444 61.3265C350.861 59.6044 350.919 57.8148 350.613 56.0694C350.103 52.7082 348.672 49.2753 347.631 46.1527C347.208 45.1115 346.963 44.0067 346.906 42.8844C346.908 42.7583 346.921 42.6326 346.944 42.5086C346.95 42.4769 346.957 42.4431 346.963 42.4115C347.396 42.2077 347.847 42.0431 348.31 41.9196C348.572 41.8499 348.836 41.7929 349.103 41.7485C350.018 46.6974 350.936 51.6462 351.854 56.5951C351.875 56.7112 351.898 56.8273 351.919 56.9456C352.051 57.655 352.184 58.3644 352.332 59.0716C352.465 59.7135 352.609 60.3532 352.77 60.9887L352.776 61.0077C352.831 61.2231 352.888 61.4363 352.947 61.6495L352.949 61.6558C353.112 62.2386 353.294 62.817 353.499 63.3871C354.742 66.8221 356.91 70.2804 356.113 73.8464Z" fill="#6C63FF"/>
<path d="M406.745 126.808C406.705 127.534 406.846 128.258 407.155 128.917C407.936 130.342 409.809 130.666 411.43 130.799C420.9 131.576 430.428 131.286 439.833 129.935C440.343 129.9 440.838 129.747 441.279 129.487C442.616 128.551 441.792 126.269 440.332 125.539C438.871 124.809 437.139 124.985 435.537 124.669C433.945 124.269 432.429 123.612 431.049 122.725C427.8 120.862 424.598 118.918 421.444 116.896C419.566 115.692 417.35 114.407 415.235 115.121C409.506 117.056 406.707 120.637 406.745 126.808Z" fill="#3F3D56"/>
<path d="M336.933 55.6832V55.6854C336.919 55.774 336.904 55.8606 336.885 55.9472C336.861 56.0907 336.834 56.2364 336.806 56.3799C336.544 57.7206 336.223 59.0549 335.853 60.3808C334.838 64.0439 333.478 67.6479 332.129 71.199C328.509 80.7209 324.888 90.2435 321.267 99.7668C320.353 102.165 319.442 104.566 318.403 106.916C318.057 107.699 317.699 108.489 317.344 109.287C316.071 112.143 314.849 115.093 314.443 118.133C314.064 120.134 314.021 122.183 314.314 124.199C314.72 126.192 315.932 128.138 317.828 128.875C318.754 129.236 320.08 129.72 319.827 130.68C319.689 131.208 319.089 131.466 318.549 131.554C317.837 131.668 317.109 131.623 316.416 131.424C315.723 131.225 315.083 130.876 314.54 130.402C313.527 129.504 312.749 128.109 311.402 127.959C310.47 127.858 309.611 128.415 308.757 128.805C305.272 130.395 301.212 129.283 297.552 128.153C297.839 126.673 299.328 125.698 300.806 125.402C302.284 125.104 303.813 125.316 305.321 125.275C305.803 125.301 306.283 125.178 306.693 124.923C307.061 124.586 307.319 124.146 307.433 123.66C308.404 120.787 309.127 117.836 309.592 114.839C310.078 111.708 310.281 108.529 310.975 105.436C311.514 103.022 312.347 100.685 313.062 98.3164C314.444 93.439 315.579 88.4951 316.462 83.5036C316.909 81.4298 317.229 79.3309 317.42 77.2183C317.541 75.466 317.484 73.7051 317.653 71.9591C317.937 69.6875 318.411 67.4438 319.072 65.2516C319.719 62.8595 320.365 60.4688 321.011 58.0795C321.969 54.5431 322.996 50.8695 325.424 48.1206C326.267 47.1529 327.3 46.3683 328.459 45.8156C329.618 45.2628 330.879 44.9537 332.163 44.9072C332.644 44.9066 333.124 44.9583 333.594 45.0613C333.673 45.0803 333.751 45.0993 333.829 45.1205C334.341 45.2542 334.833 45.4574 335.29 45.7243C336.039 45.2493 336.419 45.416 336.916 46.1487C337.352 46.924 337.557 47.8072 337.508 48.6949C337.55 51.0376 337.358 53.3787 336.933 55.6832Z" fill="#FBBEBE"/>
<path d="M337.756 58.4824L337.724 58.5141L337.553 58.6851L335.853 60.3805L335.02 56.8863L332.163 44.9069C332.644 44.9063 333.124 44.9579 333.595 45.061C333.615 44.9237 333.648 44.7887 333.694 44.6577L333.829 45.1201L334.798 48.4095L336.631 54.6547L336.933 55.6829V55.685L337.756 58.4824Z" fill="#6C63FF"/>
<path d="M348.544 20.2653C348.543 21.3745 348.323 22.4726 347.896 23.4968C347.469 24.5209 346.845 25.4511 346.058 26.2341C345.773 26.5191 345.467 26.7829 345.144 27.0234C343.684 28.1217 341.907 28.7161 340.08 28.717H329.935C327.693 28.7135 325.545 27.822 323.961 26.2381C322.377 24.6543 321.487 22.5076 321.487 20.2694C321.487 18.0312 322.377 15.8845 323.961 14.3006C325.545 12.7168 327.693 11.8252 329.935 11.8218H340.08C342.321 11.8276 344.47 12.7188 346.056 14.3008C347.642 15.8827 348.536 18.027 348.544 20.2653Z" fill="#2F2E41"/>
<path d="M358.056 20.9019C362.844 20.9019 366.726 17.0264 366.726 12.2456C366.726 7.4649 362.844 3.58936 358.056 3.58936C353.268 3.58936 349.386 7.4649 349.386 12.2456C349.386 17.0264 353.268 20.9019 358.056 20.9019Z" fill="#2F2E41"/>
<path opacity="0.1" d="M357.845 3.58936C357.738 3.58936 357.633 3.59357 357.527 3.59736C359.77 3.67877 361.894 4.62556 363.452 6.23853C365.009 7.8515 365.88 10.0049 365.88 12.2456C365.88 14.4864 365.009 16.6398 363.452 18.2527C361.894 19.8657 359.77 20.8125 357.527 20.8939C357.633 20.8977 357.738 20.9019 357.845 20.9019C360.144 20.9019 362.349 19.9899 363.975 18.3665C365.601 16.7432 366.514 14.5414 366.514 12.2456C366.514 9.94984 365.601 7.74809 363.975 6.12472C362.349 4.50136 360.144 3.58936 357.845 3.58936Z" fill="black"/>
<path opacity="0.1" d="M316.611 3.58936C316.717 3.58936 316.823 3.59357 316.928 3.59736C314.685 3.67877 312.562 4.62556 311.004 6.23853C309.446 7.8515 308.575 10.0049 308.575 12.2456C308.575 14.4864 309.446 16.6398 311.004 18.2527C312.562 19.8657 314.685 20.8125 316.928 20.8939C316.822 20.8977 316.717 20.9019 316.611 20.9019C314.313 20.8999 312.11 19.987 310.485 18.3638C308.861 16.7407 307.949 14.5401 307.949 12.2456C307.949 9.95116 308.861 7.75056 310.485 6.12741C312.11 4.50427 314.313 3.59138 316.611 3.58936Z" fill="black"/>
<path opacity="0.1" d="M345.144 27.0234C343.685 28.1217 341.907 28.7162 340.08 28.7171H329.935C328.108 28.7162 326.33 28.1217 324.871 27.0234H345.144Z" fill="black"/>
<path d="M410.654 89.7461C410.654 89.7461 412.84 96.0341 414.84 94.3599L413.246 86.1406L410.654 89.7461Z" fill="#FBBEBE"/>
<path d="M676.621 281.504C678.656 282.243 680.836 282.5 682.988 282.254C685.14 282.008 687.206 281.267 689.022 280.088C690.838 278.91 692.355 277.326 693.453 275.462C694.552 273.598 695.202 271.505 695.352 269.347C695.502 267.19 695.148 265.027 694.318 263.029C693.488 261.032 692.205 259.254 690.569 257.836C688.934 256.418 686.991 255.399 684.893 254.858C682.796 254.318 680.602 254.272 678.483 254.722L678.833 261.91L675.427 255.75C672.085 257.318 669.502 260.147 668.248 263.616C667.802 264.831 667.531 266.102 667.443 267.393C667.228 270.422 668.008 273.438 669.664 275.984C671.32 278.53 673.762 280.468 676.621 281.504Z" fill="#57B894"/>
<path d="M693.473 364.867C692.27 358.755 697.48 353.336 702.626 349.813C707.772 346.291 713.785 342.83 715.541 336.852C718.064 328.261 710.548 320.394 704.697 313.609C700.357 308.574 696.63 303.043 693.593 297.132C692.376 294.761 691.258 292.284 690.937 289.639C690.476 285.831 691.701 282.042 692.936 278.41C697.048 266.309 701.445 254.31 706.126 242.412" stroke="#3F3D56" stroke-miterlimit="10"/>
<path d="M677.197 279.654C679.232 280.393 681.412 280.649 683.564 280.404C685.716 280.158 687.782 279.416 689.598 278.238C691.414 277.059 692.931 275.475 694.029 273.611C695.128 271.748 695.778 269.654 695.928 267.497C696.078 265.339 695.724 263.176 694.894 261.179C694.064 259.181 692.781 257.403 691.145 255.985C689.51 254.567 687.567 253.548 685.469 253.008C683.372 252.467 681.178 252.421 679.059 252.872L679.409 260.059L676.003 253.9C672.661 255.468 670.078 258.297 668.824 261.765C668.378 262.98 668.107 264.252 668.019 265.543C667.804 268.571 668.584 271.587 670.24 274.133C671.896 276.68 674.338 278.618 677.197 279.654V279.654Z" stroke="#3F3D56" stroke-miterlimit="10"/>
<path d="M691.764 239.93C692.562 237.729 693.903 235.764 695.662 234.217C697.422 232.669 699.543 231.589 701.83 231.075L702.982 237.908L705.117 230.731C708.081 230.775 710.955 231.759 713.323 233.54C715.691 235.32 717.431 237.807 718.291 240.639C719.152 243.472 719.089 246.504 718.111 249.298C717.133 252.093 715.291 254.505 712.851 256.186C710.411 257.867 707.499 258.73 704.535 258.651C701.571 258.571 698.71 257.554 696.363 255.745C694.017 253.936 692.306 251.429 691.48 248.587C690.653 245.744 690.752 242.713 691.763 239.93H691.764Z" fill="#57B894"/>
<path d="M692.531 237.463C693.33 235.262 694.671 233.297 696.43 231.75C698.189 230.202 700.31 229.122 702.598 228.608L703.749 235.441L705.884 228.264C708.849 228.308 711.722 229.291 714.09 231.072C716.458 232.853 718.198 235.339 719.059 238.172C719.92 241.004 719.857 244.037 718.879 246.831C717.901 249.626 716.059 252.037 713.619 253.718C711.178 255.399 708.266 256.263 705.303 256.183C702.339 256.104 699.477 255.087 697.131 253.278C694.784 251.469 693.074 248.962 692.247 246.119C691.42 243.277 691.52 240.245 692.531 237.463H692.531Z" stroke="#3F3D56" stroke-miterlimit="10"/>
<path d="M702.243 313.747C705.471 314.917 709.017 314.859 712.206 313.585C715.394 312.311 718.002 309.911 719.532 306.841C721.061 303.771 721.406 300.246 720.5 296.939C719.595 293.631 717.502 290.772 714.62 288.906L712.98 294.421L711.816 287.508C711.805 287.502 711.793 287.498 711.781 287.494C710.054 286.868 708.221 286.587 706.385 286.668C704.55 286.749 702.748 287.191 701.084 287.967C699.419 288.744 697.924 289.84 696.684 291.194C695.444 292.547 694.483 294.132 693.857 295.856C693.23 297.581 692.95 299.411 693.033 301.244C693.115 303.077 693.558 304.875 694.337 306.536C695.116 308.198 696.215 309.69 697.571 310.927C698.928 312.165 700.515 313.123 702.242 313.747H702.243Z" fill="#57B894"/>
<path d="M702.908 311.248C706.136 312.418 709.682 312.36 712.871 311.086C716.059 309.812 718.667 307.412 720.197 304.342C721.726 301.272 722.071 297.747 721.165 294.44C720.26 291.132 718.167 288.273 715.285 286.407L713.645 291.922L712.481 285.009C712.47 285.003 712.458 284.999 712.446 284.995C710.719 284.369 708.886 284.088 707.05 284.169C705.215 284.25 703.413 284.692 701.749 285.468C700.084 286.245 698.589 287.341 697.349 288.695C696.109 290.048 695.148 291.633 694.522 293.357C693.895 295.082 693.615 296.912 693.698 298.745C693.78 300.578 694.223 302.376 695.002 304.037C695.781 305.699 696.88 307.191 698.236 308.428C699.593 309.665 701.18 310.624 702.907 311.248H702.908Z" stroke="#3F3D56" stroke-miterlimit="10"/>
<path d="M687.682 336.938C688.237 340.091 689.861 342.959 692.282 345.059C694.703 347.158 697.774 348.363 700.979 348.471C704.184 348.579 707.329 347.583 709.886 345.65C712.443 343.718 714.257 340.966 715.023 337.857C715.789 334.748 715.462 331.47 714.095 328.573C712.728 325.677 710.405 323.338 707.516 321.948C704.627 320.558 701.347 320.203 698.226 320.941C695.106 321.679 692.334 323.466 690.377 326.003L696.608 335.367L688.094 330.397C687.434 332.513 687.292 334.756 687.682 336.938Z" fill="#57B894"/>
<path d="M688.258 335.087C688.813 338.241 690.437 341.108 692.858 343.208C695.279 345.308 698.35 346.513 701.555 346.621C704.76 346.728 707.905 345.732 710.462 343.8C713.019 341.867 714.833 339.116 715.599 336.007C716.365 332.897 716.038 329.62 714.671 326.723C713.304 323.826 710.981 321.487 708.092 320.097C705.203 318.708 701.923 318.352 698.802 319.09C695.682 319.829 692.91 321.616 690.953 324.152L697.184 333.517L688.67 328.546C688.01 330.662 687.868 332.905 688.258 335.087V335.087Z" stroke="#3F3D56" stroke-miterlimit="10"/>
<path d="M6.05357 315.521C7.39106 316.007 8.82321 316.176 10.2371 316.014C11.6511 315.853 13.0081 315.366 14.2013 314.591C15.3945 313.817 16.3913 312.776 17.113 311.552C17.8347 310.327 18.2617 308.952 18.3603 307.534C18.4589 306.117 18.2264 304.696 17.6811 303.383C17.1358 302.071 16.2927 300.903 15.2181 299.971C14.1435 299.039 12.8669 298.37 11.4889 298.015C10.1109 297.66 8.66915 297.629 7.27729 297.925L7.5073 302.648L5.2696 298.601C3.07343 299.631 1.37679 301.49 0.552535 303.768C0.259807 304.567 0.0818499 305.402 0.0239731 306.25C-0.117272 308.24 0.394939 310.221 1.48298 311.894C2.57103 313.567 4.1756 314.841 6.05357 315.521Z" fill="#57B894"/>
<path d="M17.1252 370.293C16.3352 366.277 19.7581 362.716 23.1391 360.402C26.52 358.088 30.4705 355.814 31.6241 351.886C33.282 346.242 28.3436 341.073 24.4999 336.615C21.6482 333.307 19.1993 329.673 17.2044 325.789C16.3371 324.264 15.7463 322.597 15.4594 320.867C15.1563 318.365 15.9614 315.875 16.7724 313.488C19.4743 305.538 22.3631 297.654 25.4388 289.837" stroke="#3F3D56" stroke-miterlimit="10"/>
<path d="M6.43151 314.306C7.769 314.791 9.20115 314.96 10.6151 314.798C12.029 314.637 13.386 314.15 14.5792 313.375C15.7724 312.601 16.7692 311.56 17.4909 310.336C18.2127 309.111 18.6396 307.736 18.7382 306.318C18.8368 304.901 18.6043 303.48 18.059 302.167C17.5137 300.855 16.6706 299.687 15.596 298.755C14.5215 297.823 13.2449 297.154 11.8668 296.799C10.4888 296.444 9.04709 296.413 7.65523 296.709L7.88524 301.432L5.64753 297.385C3.45136 298.415 1.75472 300.274 0.930465 302.552C0.63774 303.351 0.459786 304.186 0.401906 305.034C0.260652 307.024 0.772859 309.006 1.86091 310.679C2.94895 312.352 4.55353 313.625 6.43151 314.306V314.306Z" stroke="#3F3D56" stroke-miterlimit="10"/>
<path d="M16.0022 288.207C16.5271 286.761 17.408 285.47 18.5639 284.453C19.7197 283.436 21.1133 282.726 22.6161 282.389L23.3727 286.878L24.7755 282.163C26.7231 282.192 28.6111 282.838 30.167 284.008C31.7229 285.178 32.8661 286.812 33.4315 288.673C33.997 290.534 33.9555 292.526 33.313 294.362C32.6705 296.198 31.4603 297.782 29.857 298.887C28.2538 299.991 26.3405 300.558 24.3934 300.506C22.4462 300.454 20.5661 299.786 19.0243 298.597C17.4825 297.409 16.3589 295.762 15.8157 293.894C15.2725 292.027 15.3378 290.035 16.0022 288.207Z" fill="#57B894"/>
<path d="M16.5066 286.586C17.0315 285.14 17.9124 283.849 19.0683 282.832C20.2241 281.815 21.6177 281.105 23.1205 280.768L23.8771 285.257L25.2799 280.542C27.2275 280.571 29.1155 281.217 30.6714 282.387C32.2272 283.557 33.3704 285.19 33.9359 287.051C34.5014 288.913 34.4599 290.905 33.8174 292.741C33.1749 294.577 31.9647 296.161 30.3614 297.266C28.7582 298.37 26.8449 298.937 24.8977 298.885C22.9506 298.833 21.0704 298.165 19.5287 296.976C17.9869 295.788 16.8633 294.141 16.3201 292.273C15.7769 290.405 15.8422 288.414 16.5066 286.586V286.586Z" stroke="#3F3D56" stroke-miterlimit="10"/>
<path d="M22.887 336.706C25.0082 337.474 27.3382 337.436 29.4332 336.599C31.5281 335.763 33.2413 334.185 34.2464 332.168C35.2514 330.151 35.478 327.835 34.8829 325.662C34.2877 323.489 32.9126 321.611 31.0194 320.385L29.9416 324.008L29.1773 319.466C29.1697 319.462 29.1619 319.459 29.1539 319.457C28.0193 319.045 26.8146 318.861 25.6085 318.914C24.4024 318.967 23.2186 319.257 22.1248 319.767C21.031 320.277 20.0486 320.998 19.2338 321.887C18.419 322.776 17.7877 323.817 17.376 324.951C16.9643 326.084 16.7803 327.287 16.8345 328.491C16.8886 329.695 17.18 330.877 17.6918 331.968C18.2036 333.06 18.9258 334.04 19.8172 334.853C20.7087 335.666 21.7518 336.296 22.887 336.706Z" fill="#57B894"/>
<path d="M23.3242 335.064C25.4453 335.832 27.7754 335.794 29.8703 334.957C31.9652 334.12 33.6785 332.543 34.6835 330.526C35.6886 328.509 35.9151 326.193 35.32 324.02C34.7249 321.847 33.3497 319.969 31.4566 318.743L30.3787 322.366L29.6144 317.824C29.6069 317.82 29.5991 317.817 29.591 317.815C28.4567 317.404 27.2524 317.22 26.047 317.274C24.8415 317.328 23.6585 317.619 22.5654 318.129C20.3579 319.16 18.6509 321.024 17.8198 323.311C16.9888 325.598 17.1018 328.121 18.1341 330.326C19.1664 332.53 21.0333 334.234 23.3242 335.064V335.064Z" stroke="#3F3D56" stroke-miterlimit="10"/>
<path d="M13.3204 351.942C13.6851 354.014 14.7522 355.898 16.3429 357.278C17.9336 358.657 19.951 359.449 22.0569 359.52C24.1627 359.591 26.2289 358.936 27.9089 357.667C29.5889 356.397 30.7806 354.589 31.2841 352.546C31.7876 350.503 31.5723 348.35 30.6743 346.447C29.7762 344.544 28.2501 343.007 26.3518 342.094C24.4536 341.181 22.2986 340.947 20.2484 341.432C18.1981 341.917 16.3772 343.091 15.0911 344.758L19.1852 350.91L13.5911 347.645C13.1574 349.035 13.0645 350.509 13.3204 351.942Z" fill="#57B894"/>
<path d="M13.6988 350.727C14.0635 352.799 15.1307 354.682 16.7213 356.062C18.312 357.442 20.3294 358.233 22.4353 358.304C24.5411 358.375 26.6073 357.721 28.2873 356.451C29.9674 355.181 31.159 353.373 31.6625 351.331C32.166 349.288 31.9507 347.134 31.0527 345.231C30.1546 343.328 28.6285 341.791 26.7303 340.878C24.832 339.965 22.677 339.731 20.6268 340.216C18.5765 340.701 16.7556 341.876 15.4695 343.542L19.5636 349.695L13.9695 346.429C13.5358 347.819 13.4429 349.293 13.6988 350.727V350.727Z" stroke="#3F3D56" stroke-miterlimit="10"/>
<path d="M323.2 228.878C329.509 228.878 334.624 222.269 334.624 214.116C334.624 205.964 329.509 199.355 323.2 199.355C316.89 199.355 311.775 205.964 311.775 214.116C311.775 222.269 316.89 228.878 323.2 228.878Z" fill="#2F2E41"/>
<path d="M385.361 229.213C391.67 229.213 396.785 222.604 396.785 214.452C396.785 206.299 391.67 199.69 385.361 199.69C379.051 199.69 373.937 206.299 373.937 214.452C373.937 222.604 379.051 229.213 385.361 229.213Z" fill="#2F2E41"/>
<path d="M376.624 258.064C376.624 264.734 367.296 270.142 355.792 270.142C344.287 270.142 334.959 264.734 334.959 258.064C334.959 252.287 341.955 247.456 351.303 246.276C352.791 246.08 354.291 245.983 355.792 245.987C358.307 245.979 360.815 246.249 363.271 246.792C371.08 248.53 376.624 252.925 376.624 258.064Z" fill="#2F2E41"/>
<path d="M325.888 225.523C332.197 225.523 337.312 218.914 337.312 210.761C337.312 202.609 332.197 196 325.888 196C319.579 196 314.464 202.609 314.464 210.761C314.464 218.914 319.579 225.523 325.888 225.523Z" stroke="#3F3D56" stroke-miterlimit="10"/>
<path d="M388.048 225.858C394.358 225.858 399.472 219.249 399.472 211.097C399.472 202.944 394.358 196.335 388.048 196.335C381.739 196.335 376.624 202.944 376.624 211.097C376.624 219.249 381.739 225.858 388.048 225.858Z" stroke="#3F3D56" stroke-miterlimit="10"/>
<path d="M358.48 266.787C369.985 266.787 379.312 261.38 379.312 254.71C379.312 248.04 369.985 242.632 358.48 242.632C346.975 242.632 337.648 248.04 337.648 254.71C337.648 261.38 346.975 266.787 358.48 266.787Z" stroke="#3F3D56" stroke-miterlimit="10"/>
<path d="M363.52 247.799C363.525 248.642 363.208 249.456 362.633 250.075C362.361 250.371 362.031 250.607 361.663 250.77C361.296 250.933 360.898 251.017 360.496 251.019H353.776C352.948 250.99 352.165 250.636 351.598 250.032C351.032 249.429 350.727 248.626 350.752 247.799C350.748 247.144 350.94 246.504 351.303 245.959C352.79 245.75 354.29 245.647 355.792 245.652C358.31 245.643 360.821 245.932 363.271 246.51C363.437 246.92 363.522 247.357 363.52 247.799Z" fill="white"/>
<path d="M325.888 210.091C327.744 210.091 329.248 208.589 329.248 206.736C329.248 204.883 327.744 203.381 325.888 203.381C324.032 203.381 322.528 204.883 322.528 206.736C322.528 208.589 324.032 210.091 325.888 210.091Z" fill="white"/>
<path d="M388.384 210.091C390.24 210.091 391.745 208.589 391.745 206.736C391.745 204.883 390.24 203.381 388.384 203.381C386.529 203.381 385.024 204.883 385.024 206.736C385.024 208.589 386.529 210.091 388.384 210.091Z" fill="white"/>
<path opacity="0.3" d="M391.744 241.626C393.6 241.626 395.104 240.124 395.104 238.271C395.104 236.418 393.6 234.916 391.744 234.916C389.889 234.916 388.384 236.418 388.384 238.271C388.384 240.124 389.889 241.626 391.744 241.626Z" fill="#6C63FF"/>
<path opacity="0.3" d="M309.759 241.626C311.615 241.626 313.119 240.124 313.119 238.271C313.119 236.418 311.615 234.916 309.759 234.916C307.904 234.916 306.399 236.418 306.399 238.271C306.399 240.124 307.904 241.626 309.759 241.626Z" fill="#6C63FF"/>
</g>
<defs>
<clipPath id="clip0_155_6245">
<rect width="722" height="392" fill="white"/>
</clipPath>
</defs>
</svg>
