<svg width="169" height="158" viewBox="0 0 169 158" fill="none" xmlns="http://www.w3.org/2000/svg">
<path d="M74.9693 89.2042V158H0V103.688C0 74.2819 4.14338 52.9958 12.4301 39.8292C23.3065 22.2736 40.5275 8.99722 64.0929 0L81.1844 23.0417C66.9415 28.0889 56.4536 35.6597 49.7206 45.7542C42.9876 55.6292 39.2326 70.1125 38.4558 89.2042H74.9693ZM162.785 89.2042V158H87.8156V103.688C87.8156 74.2819 91.959 52.9958 100.246 39.8292C111.122 22.2736 128.343 8.99722 151.909 0L169 23.0417C154.757 28.0889 144.269 35.6597 137.536 45.7542C130.803 55.6292 127.048 70.1125 126.271 89.2042H162.785Z" fill="#FBFBFB"/>
</svg>
