<?xml version="1.0" standalone="no"?><!DOCTYPE svg PUBLIC "-//W3C//DTD SVG 1.1//EN" "http://www.w3.org/Graphics/SVG/1.1/DTD/svg11.dtd"><svg width="100%" height="100%" viewBox="0 0 118 63" version="1.1" xmlns="http://www.w3.org/2000/svg" xmlns:xlink="http://www.w3.org/1999/xlink" xml:space="preserve" style="fill-rule:evenodd;clip-rule:evenodd;stroke-linejoin:round;stroke-miterlimit:1.41421;"><g id="Layer1"><path d="M35,42l13,0l0,-3l-13,0l0,3ZM29,34.693c0,0.254 0.007,0.526 0.02,0.817c0.015,0.292 0.038,0.589 0.068,0.89l-11.158,-14.831c-0.088,-0.117 -0.169,-0.214 -0.246,-0.292c-0.079,-0.078 -0.16,-0.136 -0.248,-0.175c-0.088,-0.039 -0.184,-0.066 -0.285,-0.08c-0.102,-0.015 -0.226,-0.022 -0.373,-0.022l-1.778,0l0,21l3.002,0l0,-13.811c0,-0.233 -0.005,-0.488 -0.019,-0.765c-0.017,-0.278 -0.036,-0.557 -0.067,-0.839l11.142,14.817c0.164,0.214 0.339,0.367 0.525,0.459c0.185,0.093 0.409,0.139 0.671,0.139l1.735,0l0,-21l-2.989,0l0,13.693ZM31.5,60c-15.715,0 -28.5,-12.785 -28.5,-28.5c0,-15.715 12.785,-28.5 28.5,-28.5c15.715,0 28.5,12.785 28.5,28.5c0,15.715 -12.785,28.5 -28.5,28.5M31.5,0c-17.369,0 -31.5,14.131 -31.5,31.5c0,17.369 14.131,31.5 31.5,31.5c17.369,0 31.5,-14.131 31.5,-31.5c0,-17.369 -14.131,-31.5 -31.5,-31.5M86.574,42l5.838,0l0,-1.485l-3.929,0l0,-2.407l3.057,0l0,-1.434l-3.057,0l0,-2.356l3.929,0l0,-1.485l-5.838,0l0,9.167ZM79.423,42l1.909,0l0,-3.658l3.297,0l0,-1.491l-3.297,0l0,-2.533l3.929,0l0,-1.485l-5.838,0l0,9.167ZM75.595,42l1.908,0l0,-9.167l-1.908,0l0,9.167ZM70.895,32.833l-1.895,0l0,9.167l5.439,0l0,-1.542l-3.544,0l0,-7.625ZM115.975,21.101l0,5.243c0,0.135 0.004,0.277 0.012,0.427c0.01,0.149 0.022,0.304 0.039,0.464l-4.598,-5.837c-0.051,-0.064 -0.097,-0.114 -0.14,-0.152c-0.042,-0.038 -0.086,-0.068 -0.133,-0.092c-0.047,-0.023 -0.098,-0.037 -0.154,-0.044c-0.057,-0.006 -0.125,-0.009 -0.206,-0.009l-0.997,0l0,9.167l1.673,0l0,-5.301c0,-0.122 -0.002,-0.255 -0.009,-0.398c-0.006,-0.143 -0.016,-0.288 -0.03,-0.436l4.569,5.812c0.096,0.118 0.195,0.201 0.297,0.25c0.1,0.048 0.225,0.073 0.373,0.073l0.979,0l0,-9.167l-1.675,0ZM102.545,30.268l5.837,0l0,-1.485l-3.929,0l0,-2.407l3.058,0l0,-1.434l-3.058,0l0,-2.357l3.929,0l0,-1.484l-5.837,0l0,9.167ZM95.549,23.438c0.242,-0.269 0.536,-0.478 0.881,-0.625c0.344,-0.147 0.731,-0.221 1.156,-0.221c0.253,0 0.475,0.014 0.669,0.044c0.194,0.03 0.374,0.072 0.538,0.126c0.164,0.055 0.319,0.119 0.464,0.193c0.146,0.074 0.294,0.157 0.445,0.25c0.161,0.097 0.307,0.13 0.443,0.101c0.134,-0.03 0.243,-0.112 0.327,-0.247l0.55,-0.846c-0.189,-0.177 -0.399,-0.339 -0.632,-0.486c-0.231,-0.148 -0.486,-0.276 -0.763,-0.383c-0.279,-0.107 -0.582,-0.192 -0.909,-0.253c-0.33,-0.061 -0.683,-0.091 -1.062,-0.091c-0.733,0 -1.396,0.116 -1.987,0.347c-0.592,0.232 -1.096,0.554 -1.514,0.967c-0.416,0.413 -0.737,0.905 -0.963,1.478c-0.224,0.573 -0.338,1.203 -0.338,1.889c0,0.678 0.118,1.303 0.354,1.876c0.235,0.573 0.57,1.068 1.005,1.485c0.433,0.417 0.956,0.742 1.565,0.976c0.612,0.234 1.294,0.351 2.048,0.351c0.59,0 1.148,-0.079 1.677,-0.237c0.529,-0.158 1.027,-0.408 1.495,-0.749l0,-3.784l-3.147,0l0,1.055c0,0.101 0.035,0.184 0.105,0.249c0.069,0.066 0.165,0.098 0.287,0.098l1.036,0l0,1.542c-0.227,0.105 -0.46,0.188 -0.698,0.249c-0.237,0.062 -0.509,0.092 -0.813,0.092c-0.445,0 -0.851,-0.072 -1.215,-0.215c-0.365,-0.143 -0.677,-0.352 -0.938,-0.625c-0.261,-0.274 -0.464,-0.61 -0.606,-1.008c-0.143,-0.398 -0.215,-0.849 -0.215,-1.355c0,-0.468 0.064,-0.891 0.195,-1.27c0.131,-0.379 0.317,-0.703 0.56,-0.973M85.254,22.63l2.678,0l0,7.638l1.903,0l0,-7.638l2.678,0l0,-1.529l-7.259,0l0,1.529ZM84.61,28.783l-3.929,0l0,-2.407l3.057,0l0,-1.434l-3.057,0l0,-2.357l3.929,0l0,-1.484l-5.838,0l0,9.167l5.838,0l0,-1.485ZM76.852,30.268l0,-9.167l-1.673,0l0,5.243c0,0.135 0.003,0.277 0.011,0.427c0.01,0.149 0.022,0.304 0.038,0.464l-4.598,-5.837c-0.05,-0.064 -0.097,-0.114 -0.139,-0.152c-0.042,-0.038 -0.087,-0.068 -0.134,-0.092c-0.046,-0.023 -0.096,-0.037 -0.154,-0.044c-0.057,-0.006 -0.125,-0.009 -0.205,-0.009l-0.998,0l0,9.167l1.674,0l0,-5.301c0,-0.122 -0.003,-0.255 -0.01,-0.398c-0.006,-0.143 -0.016,-0.288 -0.028,-0.436l4.567,5.812c0.097,0.118 0.196,0.201 0.298,0.25c0.1,0.048 0.224,0.073 0.372,0.073l0.979,0Z" style="fill:#fff;fill-rule:nonzero;"/></g></svg>