<svg width="32" height="32" viewBox="0 0 32 32" fill="none" xmlns="http://www.w3.org/2000/svg">
<rect x="3" y="7" width="26" height="18" stroke="#919191" stroke-width="2"/>
<rect x="12" y="10" width="8" height="2" fill="#919191"/>
<path fill-rule="evenodd" clip-rule="evenodd" d="M26 14H6V20.5858L10.2929 16.2929L11 15.5858L11.7071 16.2929L14.5 19.0858L16.2929 17.2929L17 16.5858L17.7071 17.2929L22.4142 22H26V14ZM19.5858 22L17 19.4142L15.9142 20.5L17.4142 22H19.5858ZM11 18.4142L14.5858 22H7.41421L11 18.4142ZM22.5 19C23.3284 19 24 18.3284 24 17.5C24 16.6716 23.3284 16 22.5 16C21.6716 16 21 16.6716 21 17.5C21 18.3284 21.6716 19 22.5 19Z" fill="#919191"/>
</svg>
