<svg width="32" height="32" viewBox="0 0 32 32" fill="none" xmlns="http://www.w3.org/2000/svg">
<rect x="8" y="10" width="16" height="2" fill="#919191"/>
<rect x="8" y="18" width="16" height="1" fill="#919191"/>
<rect x="11" y="21" width="10" height="1" fill="#919191"/>
<rect x="13" y="14" width="6" height="2" fill="#919191"/>
<rect x="2" y="6" width="2" height="2" fill="#919191"/>
<rect x="4" y="6" width="2" height="2" fill="#919191"/>
<rect x="2" y="8" width="2" height="2" fill="#919191"/>
<rect x="2" y="12" width="2" height="3" fill="#919191"/>
<rect x="28" y="12" width="2" height="3" fill="#919191"/>
<rect x="2" y="17" width="2" height="3" fill="#919191"/>
<rect x="28" y="17" width="2" height="3" fill="#919191"/>
<rect width="2" height="2" transform="matrix(1 0 0 -1 2 26)" fill="#919191"/>
<rect width="2" height="2" transform="matrix(1 0 0 -1 4 26)" fill="#919191"/>
<rect width="2" height="2" transform="matrix(1 0 0 -1 2 24)" fill="#919191"/>
<rect x="30" y="26" width="2" height="2" transform="rotate(-180 30 26)" fill="#919191"/>
<rect x="28" y="26" width="2" height="2" transform="rotate(-180 28 26)" fill="#919191"/>
<rect x="30" y="24" width="2" height="2" transform="rotate(-180 30 24)" fill="#919191"/>
<rect width="2" height="2" transform="matrix(-1 0 0 1 30 6)" fill="#919191"/>
<rect width="2" height="2" transform="matrix(-1 0 0 1 28 6)" fill="#919191"/>
<rect width="3" height="2" transform="matrix(-1 0 0 1 11 6)" fill="#919191"/>
<rect width="3" height="2" transform="matrix(-1 0 0 1 11 24)" fill="#919191"/>
<rect width="2" height="2" transform="matrix(-1 0 0 1 15 6)" fill="#919191"/>
<rect width="2" height="2" transform="matrix(-1 0 0 1 15 24)" fill="#919191"/>
<rect width="2" height="2" transform="matrix(-1 0 0 1 19 6)" fill="#919191"/>
<rect width="2" height="2" transform="matrix(-1 0 0 1 19 24)" fill="#919191"/>
<rect width="3" height="2" transform="matrix(-1 0 0 1 24 6)" fill="#919191"/>
<rect width="3" height="2" transform="matrix(-1 0 0 1 24 24)" fill="#919191"/>
<rect width="2" height="2" transform="matrix(-1 0 0 1 30 8)" fill="#919191"/>
</svg>
