<svg width="32" height="32" viewBox="0 0 32 32" fill="none" xmlns="http://www.w3.org/2000/svg">
<path d="M16 12V16H11V12C11 9.5 11.2567 8.39091 11.75 7.3C12.3974 5.84545 13.5973 4.74545 15 4L16 5.90909C15.1522 6.32727 14.4008 7.16364 14 8C13.5992 8.81818 13.5 10.3636 13.5 12H16Z" fill="#919191"/>
<path d="M9 12V16H4V12C4 9.5 4.25674 8.39091 4.75 7.3C5.3974 5.84545 6.5973 4.74545 8 4L9 5.90909C8.15222 6.32727 7.40077 7.16364 7 8C6.59923 8.81818 6.5 10.3636 6.5 12H9Z" fill="#919191"/>
<rect x="4" y="18" width="24" height="2" fill="#919191"/>
<rect x="18" y="14" width="10" height="2" fill="#919191"/>
<rect x="18" y="10" width="10" height="2" fill="#919191"/>
<rect x="4" y="22" width="24" height="2" fill="#919191"/>
<rect x="4" y="26" width="24" height="2" fill="#919191"/>
</svg>
